<?xml version="1.0"?>
<!--Icons from directory ""-->
<svg xmlns="http://www.w3.org/2000/svg" width="21" height="97" viewBox="0 0 21 97"><svg width="20" height="20" fill="none" id="behance" y="0"><path d="M9.688 0C4.346 0 0 4.346 0 9.688c0 5.341 4.346 9.687 9.688 9.687 5.341 0 9.687-4.346 9.687-9.688C19.375 4.346 15.029 0 9.687 0zm6.405 4.467a8.236 8.236 0 011.868 5.155c-.273-.058-3.008-.613-5.762-.266a25.617 25.617 0 00-.727-1.626c3.06-1.25 4.446-3.027 4.62-3.263zm-.92-.956c-.15.212-1.395 1.886-4.337 2.989a44.164 44.164 0 00-3.088-4.844 8.253 8.253 0 017.425 1.855zM6.17 2.21c.218.3 1.696 2.349 3.067 4.786-3.87 1.028-7.28 1.013-7.65 1.008A8.305 8.305 0 016.17 2.212zm-4.757 7.49c0-.085.002-.17.004-.254.362.008 4.372.06 8.504-1.177.237.463.463.934.671 1.404-2.992.843-5.71 3.263-7.052 5.559A8.242 8.242 0 011.413 9.7zm3.195 6.527c.865-1.767 3.21-4.048 6.547-5.186 1.161 3.02 1.642 5.55 1.765 6.275a8.258 8.258 0 01-8.312-1.089zm9.703.332c-.085-.504-.525-2.926-1.608-5.9 2.593-.415 4.871.264 5.155.354a8.29 8.29 0 01-3.547 5.546z" fill="#0D0D0D"/></svg><svg width="10" height="19" fill="none" id="facebook" y="20"><path d="M9.345 10.502l.518-3.379H6.621V4.931c0-.925.453-1.826 1.905-1.826H10V.228S8.662 0 7.383 0c-2.67 0-4.415 1.618-4.415 4.548v2.575H0v3.38h2.968v8.168h3.653v-8.168h2.724z" fill="#0D0D0D"/></svg><svg width="20" height="20" fill="none" id="github" y="39"><path d="M6.69 15.702c0 .08-.093.145-.21.145-.133.012-.226-.053-.226-.145 0-.081.093-.146.21-.146.12-.012.226.053.226.146zm-1.255-.182c-.028.08.053.174.174.198.105.04.226 0 .25-.08.024-.082-.053-.174-.174-.21-.104-.029-.221.011-.25.092zm1.783-.068c-.117.028-.198.104-.186.197.012.08.117.133.238.105.117-.028.198-.105.186-.185-.012-.077-.121-.13-.238-.117zM9.87 0C4.278 0 0 4.246 0 9.839c0 4.471 2.815 8.298 6.835 9.645.516.093.697-.226.697-.488 0-.25-.012-1.63-.012-2.476 0 0-2.822.605-3.415-1.201 0 0-.46-1.174-1.121-1.476 0 0-.924-.633.064-.621 0 0 1.004.08 1.557 1.04.883 1.556 2.363 1.109 2.94.843.092-.645.354-1.093.645-1.359-2.255-.25-4.529-.577-4.529-4.456 0-1.109.307-1.665.952-2.375-.105-.262-.448-1.342.105-2.738.842-.262 2.782 1.09 2.782 1.09a9.474 9.474 0 012.532-.344c.86 0 1.726.117 2.533.343 0 0 1.939-1.355 2.782-1.089.552 1.4.21 2.476.105 2.738.645.714 1.04 1.27 1.04 2.375 0 3.892-2.375 4.202-4.63 4.456.372.319.686.923.686 1.87 0 1.36-.012 3.041-.012 3.372 0 .262.186.58.698.488C17.266 18.137 20 14.31 20 9.839 20 4.246 15.464 0 9.871 0zM3.919 13.907c-.052.04-.04.133.029.21.064.064.157.093.21.04.052-.04.04-.133-.029-.21-.064-.064-.157-.092-.21-.04zm-.435-.326c-.028.052.012.117.093.157.064.04.145.028.173-.028.028-.053-.012-.117-.093-.158-.08-.024-.145-.012-.173.029zm1.306 1.435c-.064.053-.04.174.053.25.092.093.21.105.262.04.052-.052.028-.173-.053-.25-.088-.092-.21-.104-.262-.04zm-.46-.593c-.064.04-.064.146 0 .238.065.093.174.133.226.093.065-.052.065-.157 0-.25-.056-.093-.16-.133-.225-.08z" fill="#0D0D0D"/></svg><svg width="21" height="21" fill="none" id="instagram" y="59"><path d="M10.008 4.874c-2.84 0-5.13 2.29-5.13 5.13 0 2.839 2.29 5.129 5.13 5.129s5.13-2.29 5.13-5.13c0-2.839-2.29-5.13-5.13-5.13zm0 8.464a3.34 3.34 0 01-3.335-3.335 3.338 3.338 0 013.335-3.334 3.338 3.338 0 013.335 3.334 3.34 3.34 0 01-3.335 3.335zm6.536-8.674c0 .665-.536 1.196-1.197 1.196a1.197 1.197 0 111.196-1.196zm3.397 1.214c-.076-1.602-.442-3.022-1.616-4.192C17.155.516 15.735.151 14.133.07 12.48-.023 7.53-.023 5.878.07 4.28.146 2.86.512 1.686 1.682.512 2.852.151 4.272.07 5.874c-.093 1.652-.093 6.603 0 8.254.076 1.603.442 3.023 1.616 4.192 1.174 1.17 2.59 1.536 4.192 1.616 1.652.094 6.603.094 8.255 0 1.603-.076 3.022-.442 4.192-1.616 1.17-1.17 1.535-2.589 1.616-4.192.094-1.651.094-6.598 0-8.25zm-2.134 10.023a3.376 3.376 0 01-1.902 1.901c-1.317.523-4.442.402-5.897.402-1.456 0-4.585.116-5.898-.402a3.377 3.377 0 01-1.901-1.901c-.523-1.317-.402-4.442-.402-5.898 0-1.455-.116-4.584.402-5.897A3.376 3.376 0 014.11 2.204c1.317-.522 4.442-.402 5.898-.402 1.455 0 4.585-.116 5.897.402a3.376 3.376 0 011.902 1.902c.522 1.317.402 4.442.402 5.897 0 1.456.12 4.585-.402 5.898z" fill="#0D0D0D"/></svg><svg width="20" height="17" fill="none" id="twitter" y="80"><path d="M17.944 4.048c.013.178.013.356.013.533 0 5.419-4.125 11.663-11.663 11.663-2.322 0-4.48-.673-6.294-1.84.33.038.647.05.99.05 1.916 0 3.68-.647 5.089-1.751A4.106 4.106 0 012.246 9.86c.254.038.508.064.774.064.368 0 .736-.051 1.079-.14A4.1 4.1 0 01.812 5.761v-.05c.546.304 1.18.495 1.853.52A4.096 4.096 0 01.838 2.817c0-.761.203-1.46.558-2.068a11.651 11.651 0 008.452 4.29 4.627 4.627 0 01-.102-.94A4.097 4.097 0 0113.846 0c1.18 0 2.245.495 2.994 1.294a8.07 8.07 0 002.602-.99 4.088 4.088 0 01-1.802 2.26A8.217 8.217 0 0020 1.928a8.812 8.812 0 01-2.056 2.12z" fill="#3DB370"/></svg></svg>
