<?xml version="1.0" standalone="no"?>
<!DOCTYPE svg PUBLIC "-//W3C//DTD SVG 1.1//EN" "http://www.w3.org/Graphics/SVG/1.1/DTD/svg11.dtd" >
<svg xmlns="http://www.w3.org/2000/svg" xmlns:xlink="http://www.w3.org/1999/xlink" version="1.1">
<metadata></metadata>
<defs>
<font id="nunitoextralight_italic" horiz-adv-x="1228" >
<font-face units-per-em="2048" ascent="1638" descent="-410" />
<missing-glyph horiz-adv-x="503" />
<glyph unicode="&#xfb01;" horiz-adv-x="1048" d="M92 946q0 23 13.5 34t35.5 11h170l-20 -20l18 121q25 160 123 251t258 101l60 4q18 2 28 -5t14.5 -18.5t2.5 -23.5t-11.5 -20.5t-23.5 -10.5l-66 -4q-131 -8 -204.5 -78.5t-96.5 -206.5l-16 -104l-10 14h542q20 0 29.5 -13t5.5 -38l-143 -909q-2 -20 -14.5 -31.5 t-34.5 -11.5q-20 0 -29.5 13t-5.5 38l139 879h-487l-142 -887q-6 -43 -49 -43q-20 0 -29.5 13t-5.5 38l140 879h-154q-18 0 -27.5 7t-9.5 21zM895 1319q0 41 22.5 62.5t61.5 21.5q29 0 45 -14.5t16 -42.5q0 -39 -22.5 -61.5t-61.5 -22.5q-29 0 -45 15t-16 42z" />
<glyph unicode="&#xfb02;" horiz-adv-x="1189" d="M92 946q0 23 13.5 34t35.5 11h170l-20 -20l18 121q25 160 123 251t258 101l60 4q18 2 28 -5t14.5 -18.5t2.5 -23.5t-11.5 -20.5t-23.5 -10.5l-66 -4q-131 -8 -204.5 -78.5t-96.5 -206.5l-16 -104l-10 14h272q20 0 28.5 -6t8.5 -20q0 -25 -13.5 -36t-35.5 -11h-258 l-142 -887q-6 -43 -49 -43q-20 0 -29.5 13t-5.5 38l140 879h-154q-18 0 -27.5 7t-9.5 21zM768 293l178 1120q4 23 16.5 33t33.5 10q20 0 29.5 -13t4.5 -38l-176 -1112q-20 -125 18 -177.5t134 -52.5q33 0 50 4.5t26 4.5q10 0 16 -6.5t6 -24.5q0 -20 -13 -33.5t-36 -17.5 q-14 -2 -34 -4t-32 -2q-127 0 -186 77.5t-35 231.5z" />
<glyph horiz-adv-x="0" />
<glyph horiz-adv-x="682" />
<glyph horiz-adv-x="0" />
<glyph horiz-adv-x="0" />
<glyph unicode="&#xd;" horiz-adv-x="503" />
<glyph unicode=" "  horiz-adv-x="503" />
<glyph unicode="&#x09;" horiz-adv-x="503" />
<glyph unicode="&#xa0;" horiz-adv-x="503" />
<glyph unicode="!" horiz-adv-x="432" d="M74 72q0 35 22.5 56.5t55.5 21.5q35 0 55 -22t20 -56q0 -33 -20 -55.5t-55 -22.5q-33 0 -55.5 22.5t-22.5 55.5zM168 358l141 1047q4 25 18.5 38t39.5 13q27 0 39 -15.5t8 -43.5l-189 -1043q-2 -10 -10 -20t-20 -10q-14 0 -21.5 10t-5.5 24z" />
<glyph unicode="&#x22;" horiz-adv-x="700" d="M246 930l53 479q2 18 15.5 32.5t39.5 14.5q18 0 29.5 -7t17 -19.5t0.5 -30.5l-94 -471q-2 -18 -12.5 -28.5t-22.5 -10.5t-20 9t-6 32zM533 930l53 479q2 18 15.5 32.5t39.5 14.5q18 0 29.5 -7t17 -19.5t0.5 -30.5l-94 -471q-2 -18 -12.5 -28.5t-22.5 -10.5t-20 9t-6 32z " />
<glyph unicode="#" d="M45 426q0 23 14.5 35t38.5 12h213l-35 -12l195 551l23 -25h-267q-14 0 -25.5 4t-17.5 12.5t-6 18.5q0 23 14.5 35t38.5 12h289l-39 -25l131 371q8 20 22.5 30.5t35.5 10.5q18 0 25 -15.5t-3 -43.5l-114 -328h385l120 346q6 20 21.5 30.5t36.5 10.5q20 0 27.5 -15.5 t-3.5 -43.5l-123 -353l-22 25h188q16 0 26.5 -4t16.5 -12.5t6 -18.5q0 -23 -14 -35t-39 -12h-213l39 25l-194 -551l-27 12h266q16 0 26.5 -4t16.5 -12t6 -19q0 -23 -14 -35t-39 -12h-289l39 23l-139 -385q-8 -20 -21.5 -30.5t-35.5 -10.5q-20 0 -26.5 16t1.5 43l123 344 h-383l-129 -362q-8 -20 -21 -30.5t-36 -10.5q-20 0 -26.5 16t1.5 43l133 367l23 -23h-191q-14 0 -25.5 4t-17.5 12.5t-6 18.5zM367 473h385l182 514h-385z" />
<glyph unicode="$" d="M75 176q-3 14 1 27.5t15 20.5t26.5 5t32.5 -16q84 -70 185 -103.5t255 -33.5q109 0 200 32.5t145 98t54 162.5q0 74 -27.5 126t-95 91t-188.5 71l-166 45q-137 37 -221 116t-84 241q0 133 73.5 222t198.5 133t277 38l-15 -18l33 206q4 18 16.5 28.5t28.5 10.5t27.5 -12 t7.5 -41l-31 -196l-10 16q109 -14 203 -60.5t160 -119.5q8 -10 9 -22.5t-5 -24t-16.5 -17.5t-25 -3t-30.5 18q-78 78 -173 114.5t-216 36.5q-193 0 -307.5 -79t-114.5 -230q0 -127 59.5 -185.5t173.5 -89.5l166 -45q207 -57 295 -141t88 -221q0 -125 -70.5 -211t-186 -131 t-253.5 -43l31 28l-37 -229q-2 -18 -14.5 -28.5t-28.5 -10.5q-18 0 -28.5 14.5t-6.5 40.5l33 209l21 -24q-141 6 -256 46t-193 112q-12 12 -15 26z" />
<glyph unicode="%" horiz-adv-x="1875" d="M209 903q0 152 47 279t140 202.5t229 75.5q129 0 204.5 -86t75.5 -239q0 -152 -47 -279t-139.5 -202.5t-229.5 -75.5q-129 0 -204.5 86t-75.5 239zM295 915q-4 -137 51 -199.5t143 -62.5q109 0 180.5 62.5t108.5 169t41 237.5q4 137 -51 199.5t-143 62.5 q-109 0 -180.5 -62t-108.5 -167.5t-41 -239.5zM407 5q1 15 13 32l1038 1411q12 16 27.5 22.5t28 3t19.5 -13.5t6 -25.5t-13 -31.5l-1041 -1415q-12 -16 -26.5 -22.5t-26.5 -2.5t-19 15.5t-6 26.5zM1042 309q0 152 47.5 279t140.5 202.5t228 75.5q129 0 205 -86t76 -239 q0 -152 -47 -279t-139.5 -202.5t-229.5 -75.5q-129 0 -205 86t-76 239zM1128 322q-4 -137 51.5 -200t143.5 -63q109 0 180.5 62.5t108.5 169t41 237.5q4 137 -51.5 200t-143.5 63q-109 0 -180.5 -62.5t-108 -168t-41.5 -238.5z" />
<glyph unicode="&#x26;" horiz-adv-x="1359" d="M106 291q0 88 36 162.5t94.5 136t126 110t129.5 82.5l71 41l-8 -18q-74 100 -104.5 180t-30.5 145q0 100 43 174t121 115t182 41q121 0 191.5 -68.5t70.5 -177.5q0 -98 -48 -169.5t-133 -133t-200 -131.5l4 31l338 -481h-16q41 53 75.5 127.5t63.5 163t45 178.5 q4 20 16.5 30.5t32.5 10.5t29.5 -13.5t5.5 -35.5q-20 -104 -53 -200.5t-74 -180.5t-92 -152l-8 37l176 -250q10 -14 8 -27.5t-13 -21.5t-30 -8q-12 0 -21.5 5t-17.5 15l-151 217h34q-90 -115 -215.5 -178t-287.5 -63q-119 0 -206 36.5t-135.5 105.5t-48.5 165zM193 295 q0 -113 75.5 -172.5t220.5 -59.5q152 0 265.5 58.5t195.5 171.5l-4 -41l-364 510l22 -2l-72 -43q-102 -61 -179 -125t-118.5 -135.5t-41.5 -161.5zM506 1139q0 -47 10 -88t37 -88.5t76 -116.5l-31 -6q133 82 209 140t107.5 111.5t31.5 114.5q0 76 -50 125t-132 49 q-115 0 -186.5 -70.5t-71.5 -170.5z" />
<glyph unicode="'" horiz-adv-x="413" d="M246 930l53 479q2 18 15.5 32.5t39.5 14.5q18 0 29.5 -7t17 -19.5t0.5 -30.5l-94 -471q-2 -18 -12.5 -28.5t-22.5 -10.5t-20 9t-6 32z" />
<glyph unicode="(" horiz-adv-x="575" d="M209 209q0 231 44 451.5t123 418t185 355.5q12 18 28.5 21t29 -4t16.5 -23.5t-8 -36.5q-100 -170 -174 -359.5t-114 -395.5t-40 -431q0 -84 6 -172t19.5 -179.5t29.5 -181.5q4 -20 -5 -33.5t-23.5 -16.5t-27.5 6t-19 34q-33 139 -51.5 275.5t-18.5 271.5z" />
<glyph unicode=")" horiz-adv-x="575" d="M-47 -350.5q-4 16.5 8 37.5q102 172 175 360.5t113 395t40 429.5q0 84 -7.5 172.5t-19.5 179.5t-29 181q-4 20 5.5 33.5t23.5 16.5t27.5 -6t19.5 -34q31 -137 50.5 -274t19.5 -273q0 -229 -42 -447t-120.5 -413.5t-189.5 -363.5q-12 -18 -27.5 -21.5t-29 3.5t-17.5 23.5z " />
<glyph unicode="*" horiz-adv-x="917" d="M168 1106q0 18 15.5 27.5t41.5 9.5l293 -6l-10 -13l-152 248q-14 23 -12 42.5t16 27.5q16 10 33 0t29 -33l139 -250h-12l137 250q14 25 31.5 34t32.5 -1q16 -10 16 -28.5t-14 -41.5l-150 -248l-12 13l295 6q27 0 42 -9.5t15 -27.5q0 -20 -15.5 -29.5t-41.5 -9.5l-295 6 l12 14l150 -247q14 -23 14 -40.5t-16 -27.5t-34 -1t-30 32l-137 248h12l-139 -250q-12 -23 -29 -32t-33 1t-17 28.5t13 41.5l152 247l10 -14l-293 -6q-27 0 -42 10t-15 29z" />
<glyph unicode="+" d="M117 580q0 23 13 35t36 12h428l65 422q4 20 14.5 32.5t33.5 12.5t30.5 -14.5t3.5 -39.5l-65 -413h420q23 0 34 -8.5t11 -24.5q0 -23 -13.5 -35t-35.5 -12h-428l-68 -432q-2 -20 -13 -32.5t-34 -12.5q-20 0 -29.5 14t-5.5 39l68 424h-420q-20 0 -32.5 8t-12.5 25z" />
<glyph unicode="," horiz-adv-x="432" d="M58 -157.5q1 16.5 16 32.5q33 35 49 66.5t22 70.5l11 -18q-37 0 -59.5 22.5t-22.5 55.5q0 35 20.5 56.5t52.5 21.5q35 0 54.5 -24t19.5 -69q0 -43 -12 -86t-34.5 -80.5t-51.5 -66.5q-16 -16 -31.5 -16.5t-25 9t-8.5 26z" />
<glyph unicode="-" horiz-adv-x="851" d="M150 532q0 18 12 34t37 16h483q20 0 28.5 -8.5t8.5 -20.5q0 -18 -12.5 -33.5t-36.5 -15.5h-484q-20 0 -28 8t-8 20z" />
<glyph unicode="." horiz-adv-x="432" d="M74 72q0 35 22.5 56.5t55.5 21.5q35 0 55 -22t20 -56q0 -33 -20 -55.5t-55 -22.5q-33 0 -55.5 22.5t-22.5 55.5z" />
<glyph unicode="/" horiz-adv-x="524" d="M-117 -76.5q-2 13.5 4 27.5l740 1544q8 16 19 22.5t24.5 3.5t22.5 -11.5t12.5 -21.5t-5.5 -30l-739 -1540q-8 -18 -20.5 -24.5t-24.5 -3t-21.5 11.5t-11.5 21.5z" />
<glyph unicode="0" d="M156 502q0 299 67.5 514t192.5 329.5t295 114.5q215 0 324.5 -133t109.5 -385q0 -299 -67.5 -514t-191.5 -329.5t-294 -114.5q-215 0 -325.5 133t-110.5 385zM248 465q0 -199 87 -298t263 -99q213 0 334 236.5t121 674.5q0 199 -86 298t-262 99q-213 0 -335 -235.5 t-122 -675.5z" />
<glyph unicode="1" d="M199 35q0 23 14 34t35 11h301l207 1300l59 -6l-321 -205q-16 -10 -29.5 -9t-23 9.5t-12.5 20.5t3 25.5t23 23.5l311 201q14 10 23.5 13t23.5 3q16 0 26.5 -11t6.5 -36l-211 -1329h272q23 0 34 -8.5t11 -24.5q0 -23 -13 -35t-36 -12h-659q-20 0 -32.5 9t-12.5 26z" />
<glyph unicode="2" d="M137 37q0 10 8.5 23.5t22.5 27.5l569 533q127 119 213 244.5t86 267.5q0 115 -75.5 179t-217.5 64q-98 0 -193 -36.5t-196 -114.5q-16 -14 -31.5 -15.5t-24.5 7t-13 20.5t1 27.5t19 27.5q90 80 206 124t234 44q117 0 202 -41t132 -113.5t47 -168.5q0 -113 -46 -213.5 t-123.5 -191.5t-174.5 -179l-546 -506l-5 33h752q23 0 34 -8.5t11 -24.5q0 -23 -12 -35t-37 -12h-795q-23 0 -35 8t-12 29z" />
<glyph unicode="3" d="M95.5 166.5q-3.5 15.5 0.5 28t14.5 19.5t25 6t30.5 -15q96 -82 194.5 -109.5t210.5 -27.5q104 0 189.5 42t134.5 120.5t49 187.5q0 123 -84 199.5t-237 76.5h-152q-20 0 -32.5 9.5t-12.5 25.5q0 23 14.5 34t34.5 11h156q106 0 194 42t140.5 120t52.5 182q0 115 -79 186.5 t-210 71.5q-100 0 -203.5 -36.5t-187.5 -110.5q-14 -12 -27.5 -13.5t-24 6t-14.5 18.5t-1 25.5t18 26.5q90 82 206.5 125t235.5 43q115 0 199 -44t131 -120.5t47 -175.5q0 -100 -44 -183t-121 -139.5t-177 -74.5l2 20q131 -31 198.5 -118.5t67.5 -206.5q0 -131 -63.5 -229.5 t-169 -151.5t-230.5 -53q-119 0 -240.5 33.5t-217.5 121.5q-14 12 -17.5 27.5z" />
<glyph unicode="4" d="M94 373q0 10 5 24.5t24 34.5l844 998q12 16 23 21t26 5q20 0 30.5 -13t6.5 -38l-156 -985h188q23 0 34 -8.5t11 -24.5q0 -23 -13 -35t-36 -12h-196l-49 -309q-2 -20 -14.5 -31.5t-35.5 -11.5q-20 0 -28 14t-6 37l47 301h-656q-23 0 -36 9t-13 24zM195 397l2 23h614 l147 932h48z" />
<glyph unicode="5" d="M150.5 167.5q-3.5 14.5 1 27t14.5 19.5t24.5 6t30.5 -15q94 -82 183.5 -109.5t193.5 -27.5q115 0 207 54t146.5 147t54.5 210q0 143 -81 235.5t-225 92.5q-111 0 -197.5 -47t-160.5 -131q-12 -14 -23.5 -22.5t-29.5 -8.5t-29.5 13.5t-9.5 33.5l121 756q4 23 16 33t33 10 h710q23 0 34.5 -8.5t11.5 -24.5q0 -23 -13.5 -35t-36.5 -12h-675l-107 -676h-33q66 96 174.5 149.5t223.5 53.5q100 0 188 -43t143.5 -132t55.5 -233q0 -147 -67.5 -259.5t-181.5 -176t-249 -63.5q-111 0 -223.5 34.5t-208.5 122.5q-12 12 -15.5 26.5z" />
<glyph unicode="6" d="M174 506q0 188 39 359t119 305.5t199.5 212t281.5 77.5q109 0 212 -48t167 -128q10 -14 12 -28.5t-4 -26.5t-16 -18.5t-24.5 -2.5t-29.5 21q-59 72 -144 109.5t-183 37.5q-158 0 -277.5 -102.5t-189.5 -288.5t-80 -438l-2 -53h-16q20 123 87.5 211t164 135t202.5 47 q119 0 210 -52.5t143.5 -143.5t52.5 -206q0 -141 -62.5 -254.5t-171 -180t-243.5 -66.5t-235.5 63.5t-156 181t-55.5 277.5zM291 387q0 -94 43 -165.5t115.5 -112.5t164.5 -41q119 0 207 56t137.5 151.5t49.5 207.5q0 94 -42 166t-116 113t-166 41q-117 0 -206 -56.5 t-138 -150.5t-49 -209z" />
<glyph unicode="7" d="M226 25.5q1 17.5 14 37.5l897 1360l-2 -59h-799q-20 0 -32.5 9t-12.5 26q0 23 14 34t35 11h825q23 0 35 -9.5t12 -25.5q0 -14 -6 -25.5t-16 -27.5l-877 -1336q-12 -18 -24.5 -25t-24.5 -7q-18 0 -28.5 10t-9.5 27.5z" />
<glyph unicode="8" d="M98 317q0 115 51.5 210.5t139.5 153.5t198 64l-4 -10q-117 27 -179 108t-62 195q0 135 66.5 229.5t182 143.5t265.5 49q123 0 218 -42t149.5 -116.5t54.5 -177.5q0 -106 -47.5 -192t-128 -141.5t-183.5 -69.5l4 14q125 -16 202 -98t77 -209q0 -143 -70.5 -242.5 t-194.5 -150.5t-286 -51q-129 0 -231.5 39.5t-162 115.5t-59.5 178zM188 326q0 -131 101.5 -195.5t265.5 -64.5q213 0 335 92t122 276q0 129 -99.5 192.5t-261.5 63.5q-211 0 -337 -91t-126 -273zM332 1034q0 -125 90 -193.5t240 -68.5q125 0 220 42t150 121t55 187 q0 123 -91 189.5t-242 66.5q-197 0 -309.5 -86t-112.5 -258z" />
<glyph unicode="9" d="M96.5 188.5q-2.5 14.5 3.5 26.5t16.5 18.5t25 2t28.5 -20.5q59 -70 144 -108.5t184 -38.5q160 0 278.5 102t189 288.5t78.5 438.5l3 53h16q-20 -121 -88 -210t-164 -136t-203 -47q-117 0 -209 52.5t-144 143.5t-52 205q0 143 63.5 256t171 179.5t242.5 66.5t235.5 -63.5 t155.5 -180t55 -278.5q0 -188 -38.5 -359t-118.5 -305.5t-200 -212t-282 -77.5q-109 0 -211 48t-167 128q-10 14 -12.5 28.5zM293 961q0 -94 43 -166t115.5 -113t164.5 -41q119 0 207 56.5t137.5 151.5t49.5 208q0 94 -42 165.5t-116 112.5t-166 41q-117 0 -206 -56 t-138 -150.5t-49 -208.5z" />
<glyph unicode=":" horiz-adv-x="432" d="M74 72q0 35 22.5 56.5t55.5 21.5q35 0 55 -22t20 -56q0 -33 -20 -55.5t-55 -22.5q-33 0 -55.5 22.5t-22.5 55.5zM207 920q0 35 22.5 56t55.5 21q35 0 55 -21.5t20 -55.5q0 -33 -20 -55.5t-55 -22.5q-33 0 -55.5 22.5t-22.5 55.5z" />
<glyph unicode=";" horiz-adv-x="432" d="M58 -157.5q1 16.5 16 32.5q33 35 49 66.5t22 70.5l11 -18q-37 0 -59.5 22.5t-22.5 55.5q0 35 20.5 56.5t52.5 21.5q35 0 54.5 -23t19.5 -70q0 -43 -12 -86t-34.5 -80.5t-51.5 -66.5q-16 -16 -31.5 -16.5t-25 9t-8.5 26zM207 920q0 35 22.5 56t55.5 21q35 0 55 -21.5 t20 -55.5q0 -33 -20 -55.5t-55 -22.5q-33 0 -55.5 22.5t-22.5 55.5z" />
<glyph unicode="&#x3c;" d="M117 584q0 16 9 28.5t28 20.5l1005 444q16 8 29.5 4t22 -13t9.5 -21.5t-5.5 -24.5t-22.5 -18l-1010 -445l8 45l861 -438q16 -8 21 -20.5t2 -24.5t-11 -21.5t-20.5 -11.5t-28.5 6l-856 438q-41 20 -41 52z" />
<glyph unicode="=" d="M84 377q0 23 13.5 35t35.5 12h930q23 0 34 -8t11 -25q0 -23 -13.5 -35t-35.5 -12h-930q-20 0 -32.5 8t-12.5 25zM147 784q0 23 13.5 35t36.5 12h929q23 0 34 -8t11 -24q0 -23 -13 -35t-36 -12h-929q-20 0 -33 8t-13 24z" />
<glyph unicode="&#x3e;" d="M38 129q-1 12 5 24.5t23 18.5l1009 442l-8 -45l-860 441q-14 8 -20.5 20t-3.5 24.5t11.5 21.5t21.5 11.5t28 -6.5l856 -438q41 -20 41 -51q0 -14 -9.5 -27.5t-27.5 -21.5l-1006 -445q-16 -8 -29.5 -4t-21.5 13.5t-9 21.5z" />
<glyph unicode="?" horiz-adv-x="878" d="M143 1243q-4 12 0 27.5t21 29.5q84 78 196.5 119t221.5 41q111 0 185.5 -40t111 -106.5t36.5 -146.5q0 -74 -31.5 -144.5t-92 -140t-146.5 -143.5q-82 -72 -129 -134t-69.5 -118.5t-34.5 -111.5q-4 -25 -12.5 -37t-24.5 -12q-18 0 -24.5 13t-4.5 34q10 78 32.5 144.5 t74 135t143.5 150.5q86 76 136 133t71.5 111.5t21.5 115.5q0 90 -58 151.5t-185 61.5q-102 0 -195.5 -36.5t-171.5 -104.5q-16 -14 -31.5 -16t-26 5t-14.5 19zM252 72q0 35 22.5 56.5t55.5 21.5q35 0 55.5 -22t20.5 -56q0 -33 -20.5 -55.5t-55.5 -22.5q-33 0 -55.5 22.5 t-22.5 55.5z" />
<glyph unicode="@" horiz-adv-x="1931" d="M160 567q0 197 63.5 361t180 283.5t277.5 184t353 64.5q231 0 407.5 -95t276 -264t99.5 -392q0 -178 -48.5 -310.5t-134.5 -205t-202 -72.5q-119 0 -176.5 72.5t-36.5 191.5l16 -39q-53 -106 -146.5 -165.5t-191.5 -59.5q-154 0 -239 96t-85 266q0 152 58.5 270.5 t160 186.5t228.5 68q115 0 187.5 -56.5t90.5 -154.5h-14l27 159q8 47 51 48q20 0 29.5 -12.5t5.5 -37.5l-90 -526q-4 -23 -6.5 -44.5t-2.5 -39.5q0 -74 35 -110.5t105 -36.5q90 0 156.5 63.5t104.5 179t38 269.5q0 199 -90.5 349t-249 236t-365.5 86q-233 0 -410.5 -102 t-276.5 -285.5t-99 -425.5q0 -256 94 -439t266 -281.5t408 -98.5q164 0 296 51t218 138q18 18 36.5 19t31 -10.5t12.5 -28.5t-19 -38q-94 -100 -243.5 -155.5t-331.5 -55.5q-195 0 -352.5 62.5t-269 179.5t-172 282.5t-60.5 374.5zM662 483q0 -137 62 -209.5t175 -72.5 q102 0 183 61.5t128 168t47 239.5q0 131 -58 194.5t-179 63.5q-100 0 -182 -57.5t-129 -158t-47 -229.5z" />
<glyph unicode="A" horiz-adv-x="1466" d="M18 21.5q-2 15.5 9 33.5l807 1370q10 16 23 23.5t30 7.5q18 0 29.5 -8t15.5 -25l368 -1364q8 -27 5.5 -42t-12 -22t-23.5 -7q-16 0 -30.5 12t-18.5 33l-103 385l49 -19h-893l66 19l-234 -398q-8 -16 -20.5 -24t-26.5 -8q-16 0 -27.5 9t-13.5 24.5zM322 479h823l-41 -12 l-230 860h-4l-501 -860z" />
<glyph unicode="B" horiz-adv-x="1363" d="M127 55l213 1342q4 25 18.5 36t36.5 11h459q141 0 236.5 -40t142.5 -116t47 -180q0 -164 -101.5 -267.5t-271.5 -125.5v28q137 -20 217 -106t80 -213q0 -211 -127 -317.5t-368 -106.5h-535q-27 0 -39 14.5t-8 40.5zM219 80h498q199 0 298 87t99 255q0 133 -87 200.5 t-251 67.5h-461zM328 770h465q182 0 289.5 87t107.5 249q0 127 -84 192.5t-258 65.5h-426z" />
<glyph unicode="C" horiz-adv-x="1366" d="M170 625q0 178 50 330.5t144.5 265t226.5 176t296 63.5q137 0 251.5 -45t196.5 -127q12 -12 15.5 -27.5t-3 -27.5t-17.5 -19.5t-25.5 -5.5t-28.5 17q-80 80 -176 115.5t-219 35.5q-188 0 -327.5 -97t-215.5 -267t-76 -389q0 -199 62.5 -322t176 -178t269.5 -55 q111 0 204 34.5t181 116.5q14 14 28.5 15.5t26 -6t16.5 -19.5t2 -27.5t-18 -27.5q-98 -88 -205.5 -129t-240.5 -41q-178 0 -312.5 68.5t-208 209.5t-73.5 363z" />
<glyph unicode="D" horiz-adv-x="1484" d="M127 55l213 1342q4 25 18.5 36t36.5 11h342q313 0 483.5 -154.5t170.5 -437.5q0 -174 -46.5 -327.5t-144.5 -271.5t-250.5 -185.5t-367.5 -67.5h-408q-27 0 -39 14.5t-8 40.5zM217 80h369q197 0 333 61.5t220 170t121.5 247.5t37.5 293q0 250 -141 381t-422 131h-313z " />
<glyph unicode="E" horiz-adv-x="1167" d="M127 55l213 1342q4 25 18.5 36t36.5 11h785q20 0 31.5 -7t11.5 -24q0 -27 -14.5 -38t-32.5 -11h-754l-94 -592h704q20 0 31.5 -7t11.5 -24q0 -27 -14 -38t-33 -11h-715l-96 -612h746q20 0 31.5 -7t11.5 -24q0 -27 -14.5 -38t-33.5 -11h-784q-27 0 -39 14.5t-8 40.5z" />
<glyph unicode="F" horiz-adv-x="1097" d="M125 43l215 1354q4 25 18.5 36t36.5 11h750q23 0 34 -8.5t11 -24.5q0 -23 -13.5 -35t-35.5 -12h-719l-94 -592h669q23 0 34 -8t11 -25q0 -23 -13 -35t-36 -12h-678l-104 -657q-8 -47 -43 -47q-27 0 -37 14t-6 41z" />
<glyph unicode="G" horiz-adv-x="1470" d="M168 592q0 197 50 356.5t144.5 274t226.5 176t298 61.5q139 0 259 -43t195 -127q14 -14 16.5 -30.5t-2.5 -28.5t-15.5 -19.5t-25 -5.5t-30.5 19q-76 80 -176 115.5t-227 35.5q-190 0 -329.5 -95t-215.5 -271t-76 -418q0 -266 134 -395t397 -129q117 0 209 20.5t174 50.5 l-37 -67l92 575h-359q-20 0 -32.5 9.5t-12.5 25.5q0 23 14.5 34t34.5 11h398q23 0 35 -13.5t8 -37.5l-90 -574q-2 -20 -9.5 -30.5t-21.5 -16.5q-74 -33 -184.5 -52t-223.5 -19q-199 0 -337 69.5t-209.5 205.5t-71.5 333z" />
<glyph unicode="H" horiz-adv-x="1538" d="M125 41l217 1370q4 23 15.5 34t31.5 11t30.5 -13t6.5 -40l-98 -631h970l103 639q4 23 15 34t32 11q20 0 30.5 -13t6.5 -40l-217 -1370q-2 -20 -13.5 -32.5t-33.5 -12.5q-20 0 -30.5 13t-6.5 40l102 651h-971l-106 -659q-2 -20 -14 -32.5t-35 -12.5q-20 0 -29.5 13 t-5.5 40z" />
<glyph unicode="I" horiz-adv-x="479" d="M125 41l217 1370q4 23 15.5 34t31.5 11t30.5 -13t6.5 -40l-217 -1370q-2 -20 -13 -32.5t-34 -12.5q-20 0 -30.5 13t-6.5 40z" />
<glyph unicode="J" horiz-adv-x="608" d="M-100 27q0 18 12 28.5t33 12.5l67 6q123 10 198 87t97 222l164 1030q4 23 16.5 33t32.5 10t29.5 -13t5.5 -38l-166 -1043q-16 -113 -62 -190.5t-123 -122.5t-188 -55l-63 -6q-27 -2 -40 8t-13 31z" />
<glyph unicode="K" horiz-adv-x="1208" d="M127 39l217 1374q4 23 15.5 33t31.5 10t30.5 -13t6.5 -38l-100 -633h4l852 664q16 12 25.5 16t23.5 4q18 0 28.5 -11t9.5 -25.5t-16 -26.5l-890 -699l10 62l710 -703q14 -12 14.5 -27.5t-10 -26.5t-30.5 -11q-14 0 -25.5 6t-23.5 18l-691 680h-4l-104 -661 q-2 -20 -13 -31.5t-34 -11.5q-20 0 -30.5 13t-6.5 38z" />
<glyph unicode="L" horiz-adv-x="1079" d="M127 49l217 1366q4 23 15.5 32t31.5 9q23 0 32 -13t5 -36l-209 -1327h731q20 0 31.5 -7t11.5 -24q0 -27 -14 -38t-33 -11h-778q-23 0 -33 13.5t-8 35.5z" />
<glyph unicode="M" horiz-adv-x="1728" d="M131 47l217 1368q4 23 14.5 32t28.5 9t27.5 -9t15.5 -28l418 -1159h-55l796 1167q10 14 20.5 21.5t26.5 7.5q18 0 27.5 -13t5.5 -36l-217 -1368q-2 -18 -11 -28.5t-30 -10.5q-18 0 -28.5 12.5t-8.5 34.5l207 1315h51l-766 -1122q-8 -14 -18 -20.5t-27 -6.5q-18 0 -28.5 9 t-16.5 28l-403 1114h41l-209 -1325q-2 -18 -11.5 -28.5t-29.5 -10.5q-18 0 -28.5 12.5t-8.5 34.5z" />
<glyph unicode="N" horiz-adv-x="1499" d="M125 37l219 1378q4 23 15.5 32t27.5 9t25.5 -7t17.5 -24l764 -1339h-37l211 1329q4 23 15.5 32t31.5 9q18 0 26.5 -13t4.5 -36l-219 -1378q-2 -20 -12.5 -30.5t-26.5 -10.5t-25.5 8t-19.5 22l-764 1340h35l-211 -1329q-2 -20 -13.5 -30.5t-31.5 -10.5q-18 0 -26.5 13 t-6.5 36z" />
<glyph unicode="O" horiz-adv-x="1538" d="M168 592q0 182 45 340t135 276.5t223.5 185t307.5 66.5q172 0 299 -69.5t195.5 -204.5t68.5 -334q0 -182 -45 -340t-135.5 -276.5t-222.5 -185t-308 -66.5q-172 0 -298 69.5t-195.5 205.5t-69.5 333zM260 592q0 -266 126 -395t349 -129q201 0 337 103t207 281.5t71 399.5 q0 266 -126 395t-352 129q-199 0 -335 -103.5t-206.5 -280.5t-70.5 -400z" />
<glyph unicode="P" horiz-adv-x="1261" d="M125 37l217 1366q4 23 15.5 32t31.5 9h445q205 0 321.5 -93.5t116.5 -283.5q0 -207 -132 -333t-382 -126h-457l-92 -579q-2 -20 -12.5 -30.5t-30.5 -10.5t-31.5 13t-9.5 36zM315 688h451q203 0 309.5 96.5t106.5 280.5q0 156 -89 227.5t-259 71.5h-412z" />
<glyph unicode="Q" horiz-adv-x="1538" d="M168 592q0 182 45 340t135 276.5t223.5 185t307.5 66.5q172 0 299 -69.5t195.5 -204.5t68.5 -334q0 -182 -45 -340t-135.5 -276.5t-222.5 -185t-308 -66.5q-172 0 -298 69.5t-195.5 205.5t-69.5 333zM260 592q0 -266 126 -395t349 -129q201 0 337 103t207 281.5t71 399.5 q0 266 -126 395t-352 129q-199 0 -335 -103.5t-206.5 -280.5t-70.5 -400zM711 -16l88 41q84 -4 138 -37t99 -129l84 -185q8 -18 5 -31.5t-12 -20.5t-21.5 -8t-23.5 5t-19 23l-95 206q-29 66 -92 101t-151 35z" />
<glyph unicode="R" horiz-adv-x="1339" d="M127 39l215 1362q4 23 16.5 33t32.5 10h430q227 0 339 -101.5t112 -277.5q0 -137 -66.5 -232.5t-181.5 -142.5q-106 -43 -237 -43h-23v23h16q82 0 136.5 -49.5t89.5 -141.5l163 -430q8 -18 7.5 -32.5t-10 -21.5t-25.5 -7t-26.5 8t-18.5 29l-164 428q-39 102 -100.5 144 t-182.5 42h-344l-96 -608q-2 -20 -13 -31.5t-34 -11.5q-20 0 -29.5 13t-5.5 38zM319 719h465q186 0 292 90t106 254q0 150 -86 225.5t-275 75.5h-399z" />
<glyph unicode="S" d="M71 166.5q-3 13.5 1 26t14 20.5t24.5 7t30.5 -13q102 -82 215 -110.5t252 -28.5q184 0 300 80.5t116 224.5q0 96 -67.5 165.5t-243.5 108.5l-203 49q-137 33 -221 112t-84 241q0 92 39 167.5t108.5 130t162.5 84t200 29.5q127 0 254 -40t213 -128q12 -12 15 -27.5 t-2 -27.5t-15.5 -19.5t-23.5 -6.5t-30 16q-86 82 -193.5 115.5t-221.5 33.5q-117 0 -211 -41t-149.5 -113.5t-55.5 -172.5q0 -127 59.5 -184.5t173.5 -86.5l203 -49q203 -45 293 -133t90 -215q0 -94 -39 -169t-107.5 -125t-161.5 -76.5t-202 -26.5q-98 0 -191.5 15t-176 50 t-148.5 92q-14 12 -17 25.5z" />
<glyph unicode="T" horiz-adv-x="1200" d="M137 1399q0 23 14.5 34t34.5 11h1119q23 0 34 -8.5t11 -24.5q0 -23 -13.5 -35t-36.5 -12h-520l-211 -1333q-2 -20 -14 -31.5t-35 -11.5q-20 0 -29.5 13t-5.5 38l209 1325h-512q-20 0 -32.5 9t-12.5 26z" />
<glyph unicode="U" horiz-adv-x="1474" d="M196 326q-9 51 -9 110q0 71 14 154l131 823q4 23 16 33t33 10q20 0 29.5 -13t5.5 -38l-131 -827q-12 -75 -12 -139q0 -156 71 -245q100 -126 332 -126q231 0 362 114.5t172 370.5l138 860q4 23 16 33t33 10q20 0 29.5 -13t5.5 -38l-138 -870q-29 -184 -105.5 -306.5 t-204.5 -183.5t-308 -61q-135 0 -235.5 37.5t-162.5 114t-82 190.5z" />
<glyph unicode="V" horiz-adv-x="1363" d="M180 1391q-4 16 0 28.5t14.5 18.5t24.5 6q18 0 28.5 -10.5t16.5 -30.5l367 -1354h-49l800 1362q10 16 22.5 24.5t31.5 8.5q18 0 27.5 -7t11.5 -20.5t-9 -30.5l-802 -1357q-12 -20 -26.5 -30.5t-37.5 -10.5t-36 12t-19 37z" />
<glyph unicode="W" horiz-adv-x="2234" d="M236 1401q-4 27 7 41t33 14q16 0 27.5 -9t15.5 -34l254 -1374h-63l694 1376q10 23 23.5 32t32.5 9q18 0 29 -12t18 -41l254 -1364h-56l697 1384q8 16 20 24.5t27 8.5q29 0 37 -18.5t-5 -42.5l-690 -1366q-10 -20 -23.5 -30.5t-35.5 -10.5q-20 0 -33.5 13t-17.5 38 l-248 1335h41l-678 -1345q-10 -20 -22 -30.5t-35 -10.5q-20 0 -32.5 13t-17.5 38z" />
<glyph unicode="X" horiz-adv-x="1292" d="M6 22.5q0 16.5 14 32.5l625 699v-23l-379 658q-10 20 -10 34.5t11.5 23.5t27.5 9q18 0 27.5 -8t17.5 -25l362 -630h-20l563 639q10 12 22.5 18t26.5 6t25.5 -9t12.5 -24.5t-15 -33.5l-592 -668v39l408 -705q12 -18 11 -33.5t-11.5 -24.5t-28.5 -9t-26.5 9t-18.5 23 l-393 680h39l-615 -688q-10 -12 -20.5 -18t-26.5 -6q-14 0 -25.5 9t-11.5 25.5z" />
<glyph unicode="Y" horiz-adv-x="1181" d="M170 1423.5q0 14.5 10 23.5t27 9q18 0 27.5 -8t17.5 -25l387 -669h-33l611 678q10 12 21 18t26 6q14 0 24 -9t11 -24.5t-15 -33.5l-647 -717l35 80l-115 -723q-6 -41 -47 -41q-20 0 -29.5 13t-7.5 36l113 715l8 -80l-414 717q-10 20 -10 34.5z" />
<glyph unicode="Z" horiz-adv-x="1177" d="M31 26.5q-4 12.5 0 28t18 31.5l1110 1325v-47h-885q-20 0 -30.5 9t-10.5 24q0 27 15.5 37t32.5 10h923q18 0 29.5 -7t14.5 -19.5t-3 -28t-20 -31.5l-1112 -1325v47h915q20 0 31.5 -7t11.5 -24q0 -27 -14.5 -38t-32.5 -11h-954q-14 0 -24.5 7t-14.5 19.5z" />
<glyph unicode="[" horiz-adv-x="575" d="M102 -307l271 1710q4 16 16 28.5t31 12.5h248q25 0 40 -9.5t15 -27.5q0 -20 -12.5 -29.5t-34.5 -9.5h-223l-263 -1661h220q25 0 32 -10t7 -25q0 -16 -11.5 -28.5t-36.5 -12.5h-247q-25 0 -40.5 18.5t-11.5 43.5z" />
<glyph unicode="\" horiz-adv-x="524" d="M129 1479q-2 16 4 27.5t16.5 16.5t21.5 5t21.5 -9.5t12.5 -27.5l256 -1561q4 -16 -2 -28.5t-17.5 -17.5t-23.5 -3t-21.5 11.5t-13.5 27.5z" />
<glyph unicode="]" horiz-adv-x="575" d="M-135 -332q0 20 13 29.5t34 9.5h223l262 1661h-219q-25 0 -32 10.5t-7 24.5q0 16 11.5 28.5t35.5 12.5h248q25 0 40 -18.5t11 -43.5l-270 -1710q-2 -16 -15.5 -28.5t-31.5 -12.5h-248q-25 0 -40 9.5t-15 27.5z" />
<glyph unicode="^" d="M94 293.5q-6 19.5 12 48.5l582 922q12 20 24.5 26t28.5 6q33 0 45 -43l291 -921q10 -27 0 -42.5t-33 -15.5q-16 0 -25 9.5t-15 27.5l-291 916h45l-584 -924q-8 -14 -20.5 -21.5t-26.5 -7.5q-27 0 -33 19.5z" />
<glyph unicode="_" horiz-adv-x="1024" d="M-55 -39q0 18 13 28.5t30 10.5h882q23 0 32 -8t9 -23q0 -14 -13 -25.5t-30 -11.5h-882q-20 0 -30.5 7.5t-10.5 21.5z" />
<glyph unicode="`" horiz-adv-x="786" d="M365.5 1515.5q0.5 14.5 11 23.5t25 12t29.5 -4t25 -23l220 -357q10 -16 7 -29.5t-13.5 -19.5t-24 -2.5t-23.5 17.5l-245 352q-12 16 -11.5 30.5z" />
<glyph unicode="a" horiz-adv-x="1052" d="M100 274q0 104 58.5 168t183.5 92.5t322 28.5h165l-12 -76h-121q-190 0 -298.5 -19t-154.5 -65.5t-46 -123.5q0 -106 70.5 -162t158.5 -56q82 0 156.5 39t128 113t69.5 178l41 254q7 41 7 77q0 84 -38 134q-54 72 -198 72q-82 0 -154.5 -16.5t-138.5 -63.5 q-16 -12 -31.5 -12t-26 8t-12.5 20.5t4.5 26.5t24.5 27q72 47 160 68.5t178 21.5q121 0 195.5 -46.5t103.5 -133.5q17 -50 17 -113q0 -45 -9 -97l-94 -587q-2 -20 -14.5 -31.5t-32.5 -11.5t-28.5 14t-6.5 37l31 199h20q-27 -86 -83 -142.5t-128.5 -84t-146.5 -27.5 q-82 0 -156 35.5t-119 101t-45 153.5z" />
<glyph unicode="b" horiz-adv-x="1163" d="M104 39l218 1374q4 23 16 33t33 10q20 0 29.5 -13t5.5 -38l-103 -645h-24q53 115 153 181.5t238 66.5q117 0 205 -51.5t136 -145.5t48 -225q0 -160 -56.5 -297t-167 -221t-272.5 -84q-125 0 -223 64.5t-133 201.5h16l-35 -219q-2 -20 -14 -31.5t-35 -11.5q-20 0 -29.5 13 t-5.5 38zM254 406q0 -168 83 -255.5t230 -87.5q131 0 221.5 72t136.5 190.5t46 260.5q0 170 -83 256t-231 86q-131 0 -221 -72t-136 -189.5t-46 -260.5z" />
<glyph unicode="c" horiz-adv-x="931" d="M106 414q0 109 29 214t89.5 191t155.5 137.5t228 51.5q80 0 155 -25t126 -65q18 -14 26.5 -31t6.5 -31t-11.5 -22.5t-21.5 -7.5t-29 14q-55 47 -117.5 67.5t-138.5 20.5q-109 0 -186.5 -44t-126.5 -119t-72.5 -166t-23.5 -185q0 -160 74.5 -255.5t242.5 -95.5 q57 0 119.5 19.5t118.5 62.5q14 12 28.5 12.5t23.5 -7t13 -19.5t0 -25.5t-16 -23.5q-57 -47 -136 -72.5t-155 -25.5q-137 0 -226 54t-132.5 151.5t-43.5 224.5z" />
<glyph unicode="d" horiz-adv-x="1163" d="M104 406q0 160 56.5 297t167 221t272.5 84q125 0 223.5 -64.5t132.5 -202.5h-14l107 672q4 23 16 33t33 10q20 0 29.5 -13t5.5 -38l-218 -1374q-2 -20 -14 -31.5t-35 -11.5q-20 0 -29.5 13t-5.5 38l31 192h23q-51 -113 -151.5 -180t-239.5 -67q-117 0 -204 51t-136.5 146 t-49.5 225zM193 406q0 -168 83 -255.5t230 -87.5q131 0 221 72t136 190.5t46 260.5q0 170 -83 256t-230 86q-131 0 -221 -72t-136 -189.5t-46 -260.5z" />
<glyph unicode="e" horiz-adv-x="1071" d="M104 410q0 158 59.5 294t174.5 220t278 84q111 0 186 -40t119 -107.5t57 -153.5q7 -45 6 -91q0 -43 -5 -86q-4 -29 -14.5 -40t-36.5 -11h-764l12 76h762l-39 -25q6 45 6 86q1 61 -13 115q-24 90 -90.5 144.5t-187.5 54.5q-129 0 -214 -58.5t-132 -147.5t-63 -183l-6 -37 q-9 -53 -9 -101q0 -129 65 -218q89 -122 275 -122q86 0 158 21.5t141 73.5q18 14 33 15t25 -6t13 -19.5t-3 -28t-23 -27.5q-68 -51 -158.5 -79.5t-180.5 -28.5q-133 0 -230.5 51t-149 146t-51.5 229z" />
<glyph unicode="f" horiz-adv-x="626" d="M92 946q0 23 13.5 34t35.5 11h170l-20 -20l18 121q25 160 123 251t258 101l60 4q18 2 28 -5t14.5 -18.5t2.5 -23.5t-11.5 -20.5t-23.5 -10.5l-66 -4q-131 -8 -204.5 -78.5t-96.5 -206.5l-16 -104l-10 14h272q20 0 28.5 -6t8.5 -20q0 -25 -13.5 -36t-35.5 -11h-258 l-142 -887q-6 -43 -49 -43q-20 0 -29.5 13t-5.5 38l140 879h-154q-18 0 -27.5 7t-9.5 21z" />
<glyph unicode="g" horiz-adv-x="1167" d="M86 -231.5q-2 12.5 3 24.5t14.5 20.5t22.5 9.5t28 -9q78 -57 154.5 -88t180.5 -31q139 0 227.5 74.5t112.5 230.5l43 272l17 -2q-51 -113 -152.5 -180t-240.5 -67q-117 0 -205 50t-137.5 141t-49.5 212q0 113 32 217.5t95.5 186t155.5 130t215 48.5q127 0 225.5 -64.5 t133.5 -202.5h-17l35 220q4 23 16.5 33t32.5 10t29.5 -13.5t5.5 -38.5l-150 -948q-33 -199 -136 -294t-283 -95q-117 0 -214.5 37t-179.5 96q-12 8 -14 20.5zM193 426q0 -156 82.5 -240t232.5 -84q133 0 223 71t136 185.5t46 247.5q0 154 -82.5 238t-232.5 84 q-131 0 -222 -71t-137 -184.5t-46 -246.5z" />
<glyph unicode="h" horiz-adv-x="1132" d="M102 39l217 1374q4 23 16.5 33t33.5 10q20 0 29.5 -13t4.5 -38l-104 -660h-23q51 123 153.5 193t248.5 70q111 0 185.5 -44t106.5 -134q19 -53 18 -121q0 -48 -9 -105l-90 -573q-2 -20 -15.5 -31.5t-35.5 -11.5q-20 0 -29.5 13t-5.5 38l90 567q9 54 9 98q0 92 -38 145 q-56 79 -188 79q-176 0 -277.5 -105.5t-130.5 -281.5l-80 -510q-6 -43 -51 -43q-20 0 -29.5 13t-5.5 38z" />
<glyph unicode="i" horiz-adv-x="434" d="M102 39l146 922q4 23 16 33t33 10q20 0 29.5 -13.5t5.5 -38.5l-146 -921q-2 -20 -14 -31.5t-35 -11.5q-20 0 -29.5 13t-5.5 38zM281 1319q0 41 22.5 62.5t61.5 21.5q29 0 45 -14.5t16 -42.5q0 -39 -22.5 -61.5t-61.5 -22.5q-29 0 -45 15t-16 42z" />
<glyph unicode="j" horiz-adv-x="440" d="M-247 -341q3 11 12.5 19.5t25.5 8.5q125 0 203 63.5t100 204.5l160 1006q4 23 16.5 33t32.5 10t29.5 -13.5t5.5 -38.5l-160 -1005q-18 -115 -69.5 -189.5t-130.5 -111.5t-183 -37q-16 0 -27.5 8t-14.5 19.5t0 22.5zM281 1319q0 41 22.5 62.5t61.5 21.5q29 0 45 -14.5 t16 -42.5q0 -39 -22.5 -61.5t-61.5 -22.5q-29 0 -45 15t-16 42z" />
<glyph unicode="k" horiz-adv-x="958" d="M102 39l217 1374q4 23 16.5 33t33.5 10q20 0 29.5 -13t4.5 -38l-137 -873h4l572 451q14 10 25.5 15.5t25.5 5.5q16 0 25.5 -11.5t7.5 -27t-21 -29.5l-600 -475l12 80l504 -486q16 -14 16.5 -29.5t-9 -26.5t-25.5 -11t-29.5 7t-32.5 25l-479 465h-4l-72 -454 q-6 -43 -49 -43q-20 0 -29.5 13t-5.5 38z" />
<glyph unicode="l" horiz-adv-x="563" d="M141 293l178 1120q4 23 16.5 33t33.5 10q20 0 29.5 -13t4.5 -38l-176 -1112q-7 -43 -7 -78q0 -65 25 -99q38 -52 134 -53q33 0 50 4.5t26 4.5q10 0 16 -6.5t6 -24.5q0 -20 -13 -33.5t-36 -17.5q-14 -2 -34 -4t-32 -2q-127 0 -186 78q-42 55 -42 148q0 38 7 83z" />
<glyph unicode="m" horiz-adv-x="1716" d="M106 39l146 922q4 23 16.5 33t32.5 10q18 0 27.5 -14.5t5.5 -37.5l-33 -209l-20 2q53 125 145 194t217 69q121 0 196.5 -68t86.5 -197l-25 2q47 121 144.5 192t234.5 71q104 0 174 -44t98 -134q16 -51 17 -116q0 -51 -10 -110l-91 -573q-2 -20 -15 -31.5t-36 -11.5 q-20 0 -28.5 13t-6.5 38l91 577q9 54 9 98q0 86 -32 137q-48 77 -174 77q-145 0 -241.5 -102.5t-125.5 -284.5l-80 -510q-2 -20 -15 -31.5t-36 -11.5q-20 0 -29.5 13t-5.5 38l93 577q9 54 9 98q-1 86 -33 137q-48 77 -173 77q-145 0 -241.5 -102.5t-125.5 -284.5l-79 -510 q-7 -43 -52 -43q-20 0 -29.5 13t-5.5 38z" />
<glyph unicode="n" horiz-adv-x="1132" d="M104 43l146 918q4 23 16.5 33t32.5 10q18 0 27.5 -13.5t5.5 -38.5l-33 -207h-23q51 123 153.5 193t248.5 70q111 0 185.5 -44t106.5 -134q19 -53 18 -121q0 -48 -9 -105l-92 -577q-2 -18 -14.5 -28.5t-34.5 -10.5q-20 0 -29.5 13t-5.5 38l90 567q9 54 9 98q0 92 -38 145 q-56 79 -188 79q-176 0 -277.5 -105.5t-130.5 -281.5l-80 -510q-6 -43 -49 -43q-20 0 -29.5 15t-5.5 40z" />
<glyph unicode="o" horiz-adv-x="1101" d="M104 410q0 119 32 226t95.5 191t155.5 132.5t213 48.5q123 0 212 -51.5t137 -146.5t48 -228q0 -119 -31.5 -226.5t-95 -191.5t-155.5 -132t-213 -48t-211 51t-138.5 146t-48.5 229zM193 406q0 -168 83 -255.5t230 -87.5q131 0 221 72t136 190.5t46 260.5q0 170 -83 256 t-230 86q-131 0 -221 -72t-136 -189.5t-46 -260.5z" />
<glyph unicode="p" horiz-adv-x="1163" d="M43 -330l205 1291q4 23 16 33t33 10q20 0 29.5 -13.5t5.5 -38.5l-31 -192h-22q53 115 153 181.5t238 66.5q117 0 205 -51.5t136 -145.5t48 -225q0 -160 -56.5 -297t-167 -221t-272.5 -84q-125 0 -223 64.5t-133 201.5h14l-94 -588q-2 -20 -14 -31.5t-35 -11.5 q-20 0 -29.5 13.5t-5.5 37.5zM254 406q0 -168 83 -255.5t230 -87.5q131 0 221.5 72t136.5 190.5t46 260.5q0 170 -83 256t-231 86q-131 0 -221 -72t-136 -189.5t-46 -260.5z" />
<glyph unicode="q" horiz-adv-x="1163" d="M104 406q0 160 56.5 297t167 221t272.5 84q125 0 223.5 -64.5t132.5 -202.5h-14l35 220q4 23 16.5 33t32.5 10t29.5 -13.5t5.5 -38.5l-205 -1290q-2 -20 -14 -31.5t-35 -11.5q-20 0 -28.5 13.5t-6.5 37.5l88 561h25q-51 -113 -151.5 -180t-239.5 -67q-117 0 -204 51 t-136.5 146t-49.5 225zM193 406q0 -168 83 -255.5t230 -87.5q131 0 221 72t136 190.5t46 260.5q0 170 -83 256t-230 86q-131 0 -221 -72t-136 -189.5t-46 -260.5z" />
<glyph unicode="r" horiz-adv-x="669" d="M104 39l146 922q4 23 16.5 33t32.5 10q18 0 28.5 -13.5t6.5 -38.5l-31 -194h-22q43 123 150.5 188.5t232.5 65.5q35 0 48 -7.5t13 -27.5t-10 -29.5t-39 -13.5l-25 -2q-186 -14 -269 -110.5t-108 -248.5l-86 -542q-2 -20 -14 -31.5t-35 -11.5q-20 0 -29.5 13t-5.5 38z" />
<glyph unicode="s" horiz-adv-x="972" d="M95 133q3 12 13.5 20.5t24.5 7.5t33 -14q63 -45 136 -64.5t155 -19.5q123 0 195.5 51.5t72.5 147.5q0 61 -40 102.5t-112 59.5l-198 53q-92 25 -147.5 88.5t-55.5 151.5q0 86 47 151.5t131 102.5t193 37q90 0 172 -29t133 -76q14 -14 19 -28.5t1 -26.5t-14 -18.5 t-23.5 -5.5t-29.5 16q-51 45 -117 66.5t-143 21.5q-125 0 -202 -56.5t-77 -152.5q0 -59 36 -102.5t110 -63.5l198 -53q96 -27 152.5 -84.5t56.5 -147.5q0 -131 -100 -207.5t-264 -76.5q-100 0 -187.5 26.5t-148.5 71.5q-14 10 -18.5 24.5t-1.5 26.5z" />
<glyph unicode="t" horiz-adv-x="655" d="M74 948q0 23 14 33t35 10h166l45 279q4 23 16 33t33 10q20 0 29.5 -13.5t5.5 -37.5l-43 -271h287q23 0 34 -7t11 -23q0 -20 -13.5 -31.5t-36.5 -11.5h-295l-92 -586q-7 -46 -7 -84q1 -80 33 -122q48 -63 161 -63q49 0 75.5 9.5t40.5 9.5q12 0 19.5 -7t7.5 -24 q0 -18 -5 -29.5t-22 -17.5q-20 -8 -55.5 -14t-66.5 -6q-100 0 -166 40q-67 39 -93 113q-17 46 -16 103q0 34 6 73l97 605h-160q-20 0 -32.5 8t-12.5 22z" />
<glyph unicode="u" horiz-adv-x="1116" d="M154 387l90 574q4 23 16 33t33 10q20 0 30.5 -13.5t6.5 -38.5l-90 -567q-9 -54 -8 -98q0 -90 36 -144q54 -80 183 -80q170 0 270 106.5t127 281.5l80 510q4 23 16 33t33 10q20 0 30.5 -11.5t6.5 -34.5l-148 -927q-6 -43 -47 -43q-20 0 -29.5 13t-5.5 38l33 207h23 q-47 -123 -149.5 -192.5t-241.5 -69.5q-106 0 -180 44t-105 133q-18 53 -18 123q0 48 8 103z" />
<glyph unicode="v" horiz-adv-x="1032" d="M136 970.5q3 14.5 14.5 24t29.5 9.5t27.5 -9.5t15.5 -31.5l238 -932h-49l540 940q10 16 20.5 24.5t26.5 8.5q18 0 29.5 -10.5t12.5 -26t-11 -35.5l-526 -901q-12 -20 -26.5 -31.5t-41.5 -11.5q-25 0 -38 13t-21 40l-240 895q-4 20 -1 34.5z" />
<glyph unicode="w" horiz-adv-x="1699" d="M171 969q3 16 13.5 25.5t26.5 9.5q23 0 31 -11.5t12 -34.5l172 -933h-53l483 936q12 23 28.5 33t39.5 10t40 -12.5t21 -41.5l176 -925h-51l481 946q10 16 20.5 24.5t26.5 8.5q18 0 27.5 -9.5t10.5 -24t-7 -30.5l-465 -909q-10 -20 -26.5 -31.5t-36.5 -11.5t-38 13t-24 40 l-172 883h25l-465 -893q-10 -20 -26.5 -31.5t-39.5 -11.5q-20 0 -37.5 13t-21.5 40l-170 889q-4 23 -1 39z" />
<glyph unicode="x" horiz-adv-x="1036" d="M14 20.5q0 14.5 11 24.5l467 490l-5 -50l-286 447q-14 25 -12.5 40t13 23.5t21.5 8.5q16 0 27.5 -7.5t19.5 -23.5l269 -420h-23l397 426q12 12 22.5 18.5t27.5 6.5q18 0 28 -9.5t10 -23t-10 -25.5l-428 -454l-4 38l303 -471q16 -23 13 -39t-14 -24t-23 -8q-14 0 -25.5 8 t-21.5 22l-285 447l22 -4l-426 -449q-12 -12 -23.5 -18t-25.5 -6q-18 0 -28.5 9t-10.5 23.5z" />
<glyph unicode="y" horiz-adv-x="1032" d="M135 972.5q2 14.5 13.5 23t29.5 8.5q20 0 28.5 -9.5t14.5 -31.5l238 -934h-51l544 942q10 16 20.5 24.5t26.5 8.5q18 0 29.5 -10.5t13.5 -26t-10 -35.5l-749 -1278q-8 -16 -19.5 -25.5t-27.5 -9.5q-18 0 -27.5 10.5t-8.5 26.5t11 35l188 323l-6 -41l-256 965 q-4 20 -2 34.5z" />
<glyph unicode="z" horiz-adv-x="929" d="M47 40q2 11 12 23l758 881l6 -24h-600q-18 0 -28.5 8t-10.5 22q0 20 11.5 30.5t31.5 10.5h650q14 0 24 -6t13.5 -15t-1 -22.5t-16.5 -27.5l-754 -875l-6 27h625q39 0 39 -29q0 -20 -11.5 -31.5t-31.5 -11.5h-672q-12 0 -21.5 5t-14.5 14.5t-3 20.5z" />
<glyph unicode="{" horiz-adv-x="651" d="M106 535q0 16 12.5 29.5t31.5 13.5q90 2 135 36.5t59 130.5l84 525q14 84 62.5 129t134.5 45h129q25 0 35 -10.5t10 -26.5q0 -18 -14.5 -28.5t-30.5 -10.5h-133q-45 0 -72 -23.5t-35 -70.5l-84 -535q-10 -74 -44 -119t-77 -65t-84 -20v8q41 0 77 -20.5t55.5 -64.5 t7.5 -120l-82 -537q-8 -45 9 -69.5t64 -24.5h115q23 0 38 -10t15 -25q0 -20 -10 -30.5t-35 -10.5h-100q-74 0 -117 19.5t-58.5 58.5t-6.5 96l82 527q16 98 -20 132t-118 36q-14 0 -24.5 10t-10.5 25z" />
<glyph unicode="|" horiz-adv-x="499" d="M76 -330l276 1743q4 23 16.5 33t32.5 10t29.5 -13t5.5 -38l-276 -1743q-6 -43 -49 -43q-20 0 -28.5 13.5t-6.5 37.5z" />
<glyph unicode="}" horiz-adv-x="651" d="M-135 -332q0 18 14.5 28.5t30.5 10.5h133q47 0 72.5 24.5t34.5 69.5l83 535q12 76 45 120t77 64.5t83 20.5v-9q-39 0 -75.5 20.5t-55 66t-8.5 118.5l82 537q8 47 -9.5 70.5t-64.5 23.5h-114q-23 0 -38.5 10.5t-15.5 24.5q0 23 10.5 32t34.5 9h101q74 0 116.5 -19.5 t59 -58.5t6.5 -96l-82 -527q-14 -98 20.5 -133t116.5 -35q16 0 25.5 -9t9.5 -25t-12.5 -29.5t-30.5 -13.5q-88 0 -133 -36t-62 -132l-83 -525q-14 -82 -62.5 -128t-134.5 -46h-129q-25 0 -35 10.5t-10 26.5z" />
<glyph unicode="~" d="M130 524.5q-5 14.5 7 34.5q51 80 111.5 119t144.5 39q74 0 141.5 -31t124.5 -65q57 -33 104.5 -57.5t98.5 -24.5q72 0 116 35.5t75 80.5q10 16 26.5 19.5t30.5 -2.5t18.5 -20.5t-8.5 -35.5q-51 -82 -111.5 -119.5t-144.5 -37.5q-74 0 -138 30.5t-122 63.5 q-57 35 -107.5 59.5t-101.5 24.5q-70 0 -113.5 -35t-76.5 -82q-10 -16 -26.5 -19t-30 3t-18.5 20.5z" />
<glyph unicode="&#xa1;" horiz-adv-x="432" d="M35 -322l176 965q2 10 10 20.5t21 10.5q14 0 21 -9.5t5 -25.5l-129 -969q-2 -25 -17 -38t-40 -13q-27 0 -39 15.5t-8 43.5zM207 920q0 35 22.5 56t55.5 21q35 0 55 -21.5t20 -55.5q0 -33 -20 -55.5t-55 -22.5q-33 0 -55.5 22.5t-22.5 55.5z" />
<glyph unicode="&#xa2;" d="M201 414q0 104 27.5 206.5t86 186.5t152.5 137t225 60l-26 -46l39 250q4 20 15 30.5t30 10.5q16 0 27 -12t7 -41l-36 -238l-11 46q84 -4 159 -34t124 -77q12 -10 14 -23.5t-3 -23.5t-15 -16.5t-24.5 -4.5t-30.5 17q-51 41 -112 61.5t-136 20.5q-115 0 -196 -44t-131 -118 t-73.5 -165t-23.5 -183q0 -156 75.5 -251t256.5 -95q57 0 119.5 19t119.5 63q16 12 30.5 13t25 -5t14.5 -17.5t2 -24t-14 -22.5q-76 -63 -173.5 -87.5t-169.5 -16.5l25 26l-35 -223q-2 -20 -15.5 -30.5t-31.5 -10.5q-16 0 -27.5 11.5t-7.5 37.5l35 215l10 -22 q-113 16 -185.5 73.5t-107 146.5t-34.5 200z" />
<glyph unicode="&#xa3;" d="M20 37q0 20 14.5 31.5t35.5 11.5h225l-33 -29l103 647l18 -12h-213q-25 0 -34 9.5t-9 23.5q0 16 14.5 28.5t34.5 12.5h211l-16 -25l53 334q20 129 74.5 216t146.5 131t225 44q109 0 205 -38t160 -107q14 -14 16 -29.5t-4 -27t-17 -17.5t-25.5 -3t-26.5 17 q-61 68 -139 94.5t-175 26.5q-150 0 -239.5 -75.5t-114.5 -227.5l-53 -338l-17 25h373q25 0 35 -9.5t10 -23.5q0 -16 -14.5 -28.5t-34.5 -12.5h-360l-97 -606h660q25 0 35 -10.5t10 -24.5q0 -20 -14.5 -32.5t-34.5 -12.5h-938q-25 0 -37.5 11.5t-12.5 25.5z" />
<glyph unicode="&#xa4;" d="M90 17.5q0 21.5 16 37.5l127 129q-49 66 -77.5 148t-28.5 170q0 90 27.5 172t78.5 145l-127 131q-14 16 -14 37t14 37t37 15t39 -19l123 -127q63 55 144 86t169 31t167 -30t143 -83l119 123q16 18 38.5 19t36.5 -15q16 -16 16.5 -36.5t-18.5 -39.5l-123 -123 q53 -68 83 -149.5t30 -173.5t-29.5 -174t-83.5 -148l123 -125q16 -18 16.5 -38.5t-16.5 -36.5q-14 -14 -36.5 -14.5t-39.5 16.5l-118 124q-63 -53 -141 -82.5t-167 -29.5q-88 0 -167.5 30.5t-145.5 84.5l-125 -127q-16 -16 -37 -17t-37 15t-16 37.5zM223 502 q0 -117 53.5 -212t142 -151.5t197.5 -56.5q111 0 200 56.5t141.5 151.5t52.5 212t-52.5 212t-141.5 152.5t-200 55.5q-109 0 -197.5 -56.5t-142 -152t-53.5 -211.5z" />
<glyph unicode="&#xa5;" d="M131 420q0 16 13.5 28.5t31.5 12.5h389l37 233h-383q-23 0 -31 9.5t-8 23.5q0 16 13.5 28.5t31.5 12.5h340l-2 -14l-370 632q-10 20 -10.5 36t10 25t28.5 9t27.5 -8t17.5 -25l396 -682h-31l616 691q10 12 21.5 18t25.5 6q16 0 26.5 -9t11.5 -25.5t-15 -35.5l-565 -632 l2 14h329q23 0 31 -9t8 -24q0 -16 -13 -28.5t-32 -12.5h-389l-37 -233h383q23 0 31 -9.5t8 -23.5q0 -16 -13 -28.5t-32 -12.5h-389l-57 -358q-6 -41 -47 -41q-20 0 -29.5 13t-7.5 36l55 350h-383q-23 0 -31 9.5t-8 23.5z" />
<glyph unicode="&#xa6;" horiz-adv-x="499" d="M78 -330l98 613q4 23 16.5 33t32.5 10t29.5 -13.5t5.5 -38.5l-98 -612q-6 -43 -49 -43q-20 0 -29.5 13.5t-5.5 37.5zM256 801l98 612q4 23 16.5 33t32.5 10t29.5 -13t5.5 -38l-98 -612q-6 -43 -49 -43q-20 0 -29.5 13t-5.5 38z" />
<glyph unicode="&#xa7;" horiz-adv-x="1071" d="M-12 -221q4 12 15 19t26.5 5t31.5 -16q59 -47 138.5 -69.5t181.5 -22.5q106 0 183 40t118 107.5t41 149.5q0 94 -40 146t-134 112l-180 115q-76 49 -129.5 100t-81 107.5t-27.5 115.5q0 78 44 157t124 134l-4 -21q-10 29 -16.5 61t-6.5 68q0 109 59.5 193t157 132 t213.5 48q102 0 190.5 -26.5t158.5 -85.5q14 -12 18 -26.5t-1 -26t-15.5 -18.5t-25.5 -5t-32 16q-53 45 -131 68.5t-159 23.5q-106 0 -183.5 -40t-118.5 -107.5t-41 -149.5q0 -94 39 -150t136 -116l172 -106q82 -49 136 -101.5t80.5 -106.5t26.5 -116q0 -78 -44 -157.5 t-124 -133.5l4 23q12 -27 18.5 -59.5t6.5 -71.5q0 -109 -59.5 -193t-156.5 -132t-214 -48q-125 0 -220 29.5t-157 81.5q-14 12 -18 26.5t0 26.5zM215 696q0 -74 52 -134t151 -126l153 -100q72 -45 121 -88t78 -92l-18 6q57 47 86.5 106.5t29.5 110.5q0 74 -53 134t-156 126 l-143 92q-70 45 -120 88t-79 94l17 -2q-57 -45 -88 -103.5t-31 -111.5z" />
<glyph unicode="&#xa8;" horiz-adv-x="874" d="M336 1319q0 41 20.5 60.5t57.5 19.5q29 0 44 -14.5t15 -41.5q0 -39 -20.5 -59t-57.5 -20q-29 0 -44 14t-15 41zM666 1319q0 41 20 60.5t57 19.5q29 0 44.5 -14.5t15.5 -41.5q0 -39 -20.5 -59t-57.5 -20q-29 0 -44 14t-15 41z" />
<glyph unicode="&#xa9;" horiz-adv-x="1669" d="M131 723q0 158 56.5 292t156.5 233.5t234.5 155.5t291.5 56q158 0 292 -56t233.5 -155.5t156 -233.5t56.5 -292q0 -156 -56.5 -291t-156 -235.5t-233.5 -156.5t-292 -56q-156 0 -291 56t-235 156.5t-156.5 235.5t-56.5 291zM207 723q0 -141 50 -262t140 -212t211 -141.5 t262 -50.5q139 0 260 50.5t211.5 141.5t140.5 212t50 262t-50 262t-140.5 211t-211 140t-260.5 50q-141 0 -262 -50t-211 -140t-140 -211t-50 -262zM479 729q0 201 108.5 317.5t301.5 116.5q78 0 151.5 -27.5t124.5 -76.5q10 -10 12.5 -21.5t-2 -21.5t-14.5 -16.5 t-22.5 -5.5t-28.5 14q-55 43 -112.5 60t-110.5 17q-152 0 -238 -94t-86 -264q0 -168 86 -268.5t238 -100.5q53 0 111.5 18.5t113.5 63.5q18 16 33.5 14.5t25 -14t8.5 -28t-14 -27.5q-55 -49 -128.5 -76.5t-147.5 -27.5q-193 0 -301.5 123.5t-108.5 324.5z" />
<glyph unicode="&#xaa;" horiz-adv-x="647" d="M152 1026q0 90 79.5 131t260.5 41h143l-10 -59h-115q-162 0 -223.5 -26t-61.5 -85q0 -53 36 -86t93 -33q51 0 101.5 24.5t86.5 69t44 97.5l22 141q12 80 -34 118t-123 38q-47 0 -88 -12.5t-82 -34.5q-16 -10 -29.5 -7t-20 14t-3.5 25.5t22 24.5q41 25 93 39t110 14 q72 0 127 -27.5t81.5 -81t14.5 -130.5l-53 -340q-6 -33 -41 -33q-14 0 -22.5 9t-6.5 30l12 78h-4q-33 -53 -86 -86t-125 -33q-84 0 -141 52t-57 128z" />
<glyph unicode="&#xab;" horiz-adv-x="806" d="M127 539.5q0 17.5 12 33.5l223 304q10 12 23.5 16t28.5 -2q16 -8 18 -27.5t-12 -40.5l-201 -284l105 -287q8 -20 1.5 -36.5t-22.5 -20.5q-14 -4 -30.5 2t-22.5 22l-119 293q-4 10 -4 27.5zM451 539.5q0 17.5 12 33.5l223 304q10 12 23.5 16t28.5 -2q16 -8 18 -27.5 t-12 -40.5l-201 -284l105 -287q8 -20 1.5 -36.5t-22.5 -20.5q-14 -4 -30.5 2t-22.5 22l-119 293q-4 10 -4 27.5z" />
<glyph unicode="&#xac;" d="M150 791q0 23 13 35t36 12h907q25 0 40 -17.5t11 -46.5l-67 -426q-7 -39 -50 -39q-20 0 -27 14.5t-3 38.5l63 396h-878q-20 0 -32.5 8t-12.5 25z" />
<glyph unicode="&#xad;" horiz-adv-x="851" d="M150 532q0 18 12 34t37 16h483q20 0 28.5 -8.5t8.5 -20.5q0 -18 -12.5 -33.5t-36.5 -15.5h-484q-20 0 -28 8t-8 20z" />
<glyph unicode="&#xae;" horiz-adv-x="1669" d="M131 723q0 158 56.5 292t156.5 233.5t234.5 155.5t291.5 56q158 0 292 -56t233.5 -155.5t156 -233.5t56.5 -292q0 -156 -56.5 -291t-156 -235.5t-233.5 -156.5t-292 -56q-156 0 -291 56t-235 156.5t-156.5 235.5t-56.5 291zM207 723q0 -141 50 -262t140 -212t211 -141.5 t262 -50.5q139 0 260 50.5t211.5 141.5t140.5 212t50 262t-50 262t-140.5 211t-211 140t-260.5 50q-141 0 -262 -50t-211 -140t-140 -211t-50 -262zM594 324v778q0 25 13.5 38t37.5 13h281q133 0 204.5 -63.5t71.5 -182.5q0 -117 -72.5 -179t-205.5 -62l6 18q59 0 101 -24.5 t67 -84.5l96 -235q10 -27 0 -44t-33 -17q-16 0 -26.5 9t-16.5 23l-106 254q-23 57 -68 77t-108 20h-181l23 18v-356q0 -45 -41 -45q-43 0 -43 45zM678 737h237q102 0 152.5 41t50.5 129q0 86 -49 128t-154 42h-237v-340z" />
<glyph unicode="&#xaf;" horiz-adv-x="1007" d="M338 1329q0 23 13.5 34t33.5 11h508q43 0 43 -33q0 -20 -12 -32.5t-35 -12.5h-508q-43 0 -43 33z" />
<glyph unicode="&#xb0;" horiz-adv-x="745" d="M190 1163q0 82 38 147.5t103.5 104.5t147.5 39t146.5 -38t102.5 -103.5t38 -149.5q0 -82 -38 -148.5t-102.5 -104.5t-146.5 -38t-147.5 39t-103.5 104.5t-38 147.5zM279 1163q0 -92 56 -150.5t144 -58.5q90 0 145.5 58.5t55.5 150.5t-55.5 150.5t-145.5 58.5 q-88 0 -144 -58.5t-56 -150.5z" />
<glyph unicode="&#xb1;" d="M31 33q0 23 13 35t36 12h930q23 0 34 -8.5t11 -24.5q0 -23 -13.5 -35t-35.5 -12h-930q-20 0 -32.5 8t-12.5 25zM129 653q0 23 13.5 35t35.5 12h430l54 349q4 20 14 32.5t33 12.5t31 -14.5t3 -39.5l-53 -340h418q23 0 34 -8t11 -24q0 -23 -13.5 -35t-35.5 -12h-428 l-53 -349q-2 -20 -13.5 -32.5t-34.5 -12.5q-20 0 -29 14.5t-5 39.5l53 340h-420q-20 0 -32.5 8t-12.5 24z" />
<glyph unicode="&#xb2;" horiz-adv-x="778" d="M133 611q0 10 7 20t18 21l333 307q76 72 127.5 140.5t53.5 144.5q2 63 -41 98t-121 35q-57 0 -111.5 -19.5t-107.5 -54.5q-20 -14 -36 -11t-23 16t-3 29.5t23 28.5q57 41 126.5 63.5t143.5 22.5t127 -25.5t82 -70.5t27 -104q-2 -102 -64.5 -183t-152.5 -163l-312 -283v31 h428q41 0 41 -35q0 -20 -12 -30.5t-33 -10.5h-479q-20 0 -30.5 9t-10.5 24z" />
<glyph unicode="&#xb3;" horiz-adv-x="778" d="M121 686.5q-2 16.5 6 29t23.5 15.5t35.5 -14q53 -41 110.5 -55t121.5 -14q82 0 143 49t63 135q2 68 -44 107.5t-134 39.5h-118q-20 0 -30.5 9.5t-10.5 23.5q0 20 12 31.5t33 11.5h125q90 0 154.5 49t66.5 133q2 63 -42 101.5t-120 38.5q-61 0 -116.5 -19.5t-108.5 -58.5 q-18 -12 -32.5 -9t-22 15t-4.5 27.5t20 27.5q57 41 127.5 66.5t148.5 25.5q113 0 175.5 -59t60.5 -147t-62.5 -152.5t-152.5 -81.5l2 15q80 -18 119.5 -71.5t37.5 -125.5q-2 -76 -41.5 -134.5t-105 -91t-145.5 -32.5q-70 0 -145 19.5t-132 66.5q-16 12 -18 28.5z" />
<glyph unicode="&#xb4;" horiz-adv-x="692" d="M308 1136.5q-3 12.5 7 26.5l242 359q14 20 29.5 26t29 3t22.5 -14t9 -26.5t-12 -31.5l-269 -349q-10 -14 -23 -16t-22.5 4t-12.5 18.5z" />
<glyph unicode="&#xb5;" d="M98 -330l205 1291q4 23 16.5 33t32.5 10t30.5 -13.5t6.5 -38.5l-90 -567q-27 -162 27.5 -242t183.5 -80q170 0 270.5 106.5t126.5 281.5l80 510q4 23 16.5 33t32.5 10t29.5 -13.5t5.5 -38.5l-145 -921q-6 -43 -47 -43q-20 0 -29.5 13t-5.5 38l33 207h22 q-47 -123 -149.5 -192.5t-241.5 -69.5q-100 0 -171 38.5t-106 114.5l19 4l-68 -479q-2 -23 -14 -33t-35 -10q-20 0 -29.5 13.5t-5.5 37.5z" />
<glyph unicode="&#xb6;" horiz-adv-x="1138" d="M193 1012q0 127 55 224t153.5 152.5t225.5 55.5h409q27 0 39 -14.5t8 -40.5l-274 -1727q-6 -43 -49 -43q-20 0 -28.5 13.5t-6.5 37.5l268 1696h-280l-271 -1704q-6 -43 -49 -43q-20 0 -28.5 13.5t-6.5 37.5l160 1016q-102 0 -175 44t-111.5 118t-38.5 164z" />
<glyph unicode="&#xb7;" horiz-adv-x="432" d="M147 543q0 35 23 56.5t55 21.5q35 0 55.5 -21.5t20.5 -56.5q0 -33 -20.5 -55.5t-55.5 -22.5q-33 0 -55.5 22.5t-22.5 55.5z" />
<glyph unicode="&#xb8;" horiz-adv-x="784" d="M76.5 -313.5q5.5 14.5 18.5 20.5t32 -2q25 -10 53.5 -15t66.5 -5q57 0 96.5 23.5t39.5 68.5q0 29 -18.5 45t-53.5 16q-16 0 -38.5 -3t-43.5 -9q-14 -4 -25.5 -4t-17.5 6t-7 14t5 27l55 172h78l-51 -154l-37 4q27 6 50.5 10.5t43.5 4.5q59 0 100.5 -32t41.5 -91 q0 -76 -66 -124t-166 -48q-35 0 -69.5 6t-63.5 18q-18 8 -23.5 22.5t0 29z" />
<glyph unicode="&#xb9;" horiz-adv-x="778" d="M227 611q0 20 12.5 31.5t32.5 11.5h152l112 717l64 6l-207 -127q-20 -12 -36.5 -8t-25 17t-3 30.5t25.5 29.5l180 111q14 10 26.5 14t27.5 4q12 0 19 -6t10 -17t1 -28l-116 -743h122q41 0 41 -31q0 -20 -12 -32.5t-33 -12.5h-352q-41 0 -41 33z" />
<glyph unicode="&#xba;" horiz-adv-x="667" d="M160 1126q0 102 40 177t106.5 116t146.5 41q78 0 137 -34.5t93 -97t34 -148.5q0 -102 -40 -177t-105.5 -116t-147.5 -41q-78 0 -137.5 34.5t-93 98t-33.5 147.5zM233 1124q0 -102 52.5 -158.5t140.5 -56.5q96 0 156.5 71t60.5 202q0 102 -52 158.5t-140 56.5 q-96 0 -157 -71t-61 -202z" />
<glyph unicode="&#xbb;" horiz-adv-x="806" d="M64.5 222.5q-1.5 19.5 13.5 39.5l198 285l-102 287q-8 23 -2 38t21 19q16 4 31.5 -2t21.5 -23l119 -293q4 -10 4 -27.5t-13 -33.5l-223 -303q-8 -12 -22.5 -16t-28.5 2q-16 8 -17.5 27.5zM388.5 222.5q-1.5 19.5 13.5 39.5l198 285l-102 287q-8 23 -2 38t21 19 q16 4 31.5 -2t21.5 -23l119 -293q4 -10 4 -27.5t-13 -33.5l-223 -303q-8 -12 -22.5 -16t-28.5 2q-16 8 -17.5 27.5z" />
<glyph unicode="&#xbc;" horiz-adv-x="1796" d="M227 611q0 20 12.5 31.5t32.5 11.5h152l112 717l64 6l-207 -127q-20 -12 -36.5 -8t-25 17t-3 30.5t25.5 29.5l180 111q14 10 26.5 14t27.5 4q12 0 19 -6t10 -17t1 -28l-116 -743h122q41 0 41 -31q0 -20 -12 -32.5t-33 -12.5h-352q-41 0 -41 33zM408 -3q1 13 12 28 l1052 1433q10 14 22.5 19.5t23 2.5t16.5 -11.5t5 -21.5t-11 -28l-1053 -1433q-10 -14 -22.5 -19.5t-22.5 -2.5t-16.5 11.5t-5.5 21.5zM1067 231q0 10 6 20.5t15 22.5l477 568q10 14 21.5 21t25.5 7q18 0 27.5 -12t5.5 -35l-88 -555h90q20 0 30.5 -8t10.5 -22 q0 -20 -12.5 -32.5t-32.5 -12.5h-99l-24 -160q-2 -18 -13.5 -28.5t-29.5 -10.5q-20 0 -28.5 12t-6.5 35l25 152h-355q-20 0 -32.5 9t-12.5 29zM1145 268h334l76 484h24l-432 -514z" />
<glyph unicode="&#xbd;" horiz-adv-x="1878" d="M227 611q0 20 12.5 31.5t32.5 11.5h152l112 717l64 6l-207 -127q-20 -12 -36.5 -8t-25 17t-3 30.5t25.5 29.5l180 111q14 10 26.5 14t27.5 4q12 0 19 -6t10 -17t1 -28l-116 -743h122q41 0 41 -31q0 -20 -12 -32.5t-33 -12.5h-352q-41 0 -41 33zM408 -3q1 13 12 28 l1052 1433q10 14 22.5 19.5t23 2.5t16.5 -11.5t5 -21.5t-11 -28l-1053 -1433q-10 -14 -22.5 -19.5t-22.5 -2.5t-16.5 11.5t-5.5 21.5zM1141 33q0 10 7 20t18 21l333 307q76 72 127.5 140.5t53.5 144.5q2 63 -41 98t-121 35q-57 0 -111.5 -19.5t-107.5 -54.5q-20 -14 -36 -11 t-23 16t-3 29.5t23 28.5q57 41 126.5 63.5t143.5 22.5t127 -25.5t82 -70.5t27 -104q-2 -102 -64.5 -183t-152.5 -163l-312 -283v31h428q41 0 41 -35q0 -20 -12 -30.5t-33 -10.5h-479q-20 0 -30.5 9t-10.5 24z" />
<glyph unicode="&#xbe;" horiz-adv-x="1796" d="M121 686.5q-2 16.5 6 29t23.5 15.5t35.5 -14q53 -41 110.5 -55t121.5 -14q82 0 143 49t63 135q2 68 -44 107.5t-134 39.5h-118q-20 0 -30.5 9.5t-10.5 23.5q0 20 12 31.5t33 11.5h125q90 0 154.5 49t66.5 133q2 63 -42 101.5t-120 38.5q-61 0 -116.5 -19.5t-108.5 -58.5 q-18 -12 -32.5 -9t-22 15t-4.5 27.5t20 27.5q57 41 127.5 66.5t148.5 25.5q113 0 175.5 -59t60.5 -147t-62.5 -152.5t-152.5 -81.5l2 15q80 -18 119.5 -71.5t37.5 -125.5q-2 -76 -41.5 -134.5t-105 -91t-145.5 -32.5q-70 0 -145 19.5t-132 66.5q-16 12 -18 28.5zM408 -3 q1 13 12 28l1052 1433q10 14 22.5 19.5t23 2.5t16.5 -11.5t5 -21.5t-11 -28l-1053 -1433q-10 -14 -22.5 -19.5t-22.5 -2.5t-16.5 11.5t-5.5 21.5zM1067 231q0 10 6 20.5t15 22.5l477 568q10 14 21.5 21t25.5 7q18 0 27.5 -12t5.5 -35l-88 -555h90q20 0 30.5 -8t10.5 -22 q0 -20 -12.5 -32.5t-32.5 -12.5h-99l-24 -160q-2 -18 -13.5 -28.5t-29.5 -10.5q-20 0 -28.5 12t-6.5 35l25 152h-355q-20 0 -32.5 9t-12.5 29zM1145 268h334l76 484h24l-432 -514z" />
<glyph unicode="&#xbf;" horiz-adv-x="878" d="M-31 -102q-2 111 66.5 199.5t173.5 176.5q78 66 129 122.5t82 112.5t43 122q4 23 14 32t25 9q16 0 23 -10.5t3 -26.5q-14 -88 -41.5 -154.5t-79 -127t-137.5 -134.5q-94 -80 -152.5 -152.5t-58.5 -164.5q0 -86 60.5 -144.5t173.5 -58.5q121 0 218 34t169 91 q18 14 33.5 16t26 -6t13.5 -21.5t-2.5 -27.5t-19.5 -27q-82 -68 -193.5 -105.5t-246.5 -37.5q-98 0 -170 38t-112 102.5t-40 142.5zM467 920q0 35 22.5 56t55.5 21q35 0 55.5 -21.5t20.5 -55.5q0 -33 -20.5 -55.5t-55.5 -22.5q-33 0 -55.5 22.5t-22.5 55.5z" />
<glyph unicode="&#xc0;" horiz-adv-x="1466" d="M18 21.5q-2 15.5 9 33.5l807 1370q10 16 23 23.5t30 7.5q18 0 29.5 -8t15.5 -25l368 -1364q8 -27 5.5 -42t-12 -22t-23.5 -7q-16 0 -30.5 12t-18.5 33l-103 385l49 -19h-893l66 19l-234 -398q-8 -16 -20.5 -24t-26.5 -8q-16 0 -27.5 9t-13.5 24.5zM322 479h823l-41 -12 l-230 860h-4l-501 -860zM650.5 1889.5q0.5 15.5 11 25.5t25 13t29.5 -2t26 -23l180 -293q8 -14 4 -26.5t-14.5 -20t-24 -5t-23.5 16.5l-202 283q-12 16 -11.5 31.5z" />
<glyph unicode="&#xc1;" horiz-adv-x="1466" d="M18 21.5q-2 15.5 9 33.5l807 1370q10 16 23 23.5t30 7.5q18 0 29.5 -8t15.5 -25l368 -1364q8 -27 5.5 -42t-12 -22t-23.5 -7q-16 0 -30.5 12t-18.5 33l-103 385l49 -19h-893l66 19l-234 -398q-8 -16 -20.5 -24t-26.5 -8q-16 0 -27.5 9t-13.5 24.5zM322 479h823l-41 -12 l-230 860h-4l-501 -860zM894 1583q-3 12 7 25l230 297q12 16 28.5 21t29.5 1t22.5 -13t9.5 -23.5t-15 -30.5l-251 -287q-12 -12 -25.5 -14.5t-23 5t-12.5 19.5z" />
<glyph unicode="&#xc2;" horiz-adv-x="1466" d="M18 21.5q-2 15.5 9 33.5l807 1370q10 16 23 23.5t30 7.5q18 0 29.5 -8t15.5 -25l368 -1364q8 -27 5.5 -42t-12 -22t-23.5 -7q-16 0 -30.5 12t-18.5 33l-103 385l49 -19h-893l66 19l-234 -398q-8 -16 -20.5 -24t-26.5 -8q-16 0 -27.5 9t-13.5 24.5zM322 479h823l-41 -12 l-230 860h-4l-501 -860zM610.5 1574q-2.5 11 10.5 25l233 285q18 23 35.5 34t42.5 11q23 0 36 -11t27 -34l175 -287q10 -14 5 -26t-16.5 -16.5t-26 0t-24.5 18.5l-184 264l-254 -270q-12 -12 -25.5 -14.5t-22.5 4t-11.5 17.5z" />
<glyph unicode="&#xc3;" horiz-adv-x="1466" d="M18 21.5q-2 15.5 9 33.5l807 1370q10 16 23 23.5t30 7.5q18 0 29.5 -8t15.5 -25l368 -1364q8 -27 5.5 -42t-12 -22t-23.5 -7q-16 0 -30.5 12t-18.5 33l-103 385l49 -19h-893l66 19l-234 -398q-8 -16 -20.5 -24t-26.5 -8q-16 0 -27.5 9t-13.5 24.5zM322 479h823l-41 -12 l-230 860h-4l-501 -860zM512 1659q29 106 87.5 160.5t139.5 54.5q55 0 103.5 -26.5t92.5 -60.5t85 -60.5t82 -26.5q55 0 94 39t62 114q4 16 14 23.5t25 5.5q16 -2 23 -12t3 -29q-27 -106 -85 -160.5t-142 -54.5q-55 0 -103.5 26.5t-92.5 60.5t-85 60.5t-82 26.5 q-55 0 -94 -38t-61 -115q-4 -14 -13.5 -22.5t-25.5 -6.5q-14 2 -22.5 12t-4.5 29z" />
<glyph unicode="&#xc4;" horiz-adv-x="1466" d="M18 21.5q-2 15.5 9 33.5l807 1370q10 16 23 23.5t30 7.5q18 0 29.5 -8t15.5 -25l368 -1364q8 -27 5.5 -42t-12 -22t-23.5 -7q-16 0 -30.5 12t-18.5 33l-103 385l49 -19h-893l66 19l-234 -398q-8 -16 -20.5 -24t-26.5 -8q-16 0 -27.5 9t-13.5 24.5zM322 479h823l-41 -12 l-230 860h-4l-501 -860zM703 1729q0 41 20.5 60t56.5 19q29 0 44.5 -14t15.5 -41q0 -39 -20.5 -59.5t-57.5 -20.5q-29 0 -44 14.5t-15 41.5zM1032 1729q0 41 20.5 60t57.5 19q29 0 44.5 -14t15.5 -41q0 -39 -20.5 -59.5t-57.5 -20.5q-29 0 -44.5 14.5t-15.5 41.5z" />
<glyph unicode="&#xc5;" horiz-adv-x="1466" d="M18 21.5q-2 15.5 9 33.5l807 1370q10 16 23 23.5t30 7.5q18 0 29.5 -8t15.5 -25l368 -1364q8 -27 5.5 -42t-12 -22t-23.5 -7q-16 0 -30.5 12t-18.5 33l-103 385l49 -19h-893l66 19l-234 -398q-8 -16 -20.5 -24t-26.5 -8q-16 0 -27.5 9t-13.5 24.5zM322 479h823l-41 -12 l-230 860h-4l-501 -860zM715 1782q0 63 30.5 113.5t83 81t115.5 30.5q66 0 117 -30.5t82 -81t31 -113.5q0 -61 -31 -112.5t-82 -82.5t-117 -31q-63 0 -115.5 31t-83 82t-30.5 113zM785 1782q0 -68 44.5 -114t114.5 -46q72 0 116 46t44 114t-44 114t-116 46 q-70 0 -114.5 -46.5t-44.5 -113.5z" />
<glyph unicode="&#xc6;" horiz-adv-x="1988" d="M-49 21.5q0 15.5 12 29.5l1030 1366q10 16 24.5 21.5t31.5 5.5h952q20 0 31.5 -7t11.5 -24q0 -27 -14.5 -38t-32.5 -11h-920l25 49l35 -663l-35 22h751q20 0 31.5 -7t11.5 -24q0 -27 -14 -38t-33 -11h-743l33 21l32 -672l-36 39h651q20 0 31.5 -7t11.5 -24 q0 -23 -13.5 -36t-35.5 -13h-643q-41 0 -45 43l-19 381l37 -25h-809l43 25l-301 -401q-14 -20 -26.5 -27.5t-26.5 -7.5q-18 0 -28.5 9t-10.5 24.5zM354 479h731l-14 -18l-45 866h-4l-651 -868z" />
<glyph unicode="&#xc7;" horiz-adv-x="1366" d="M170 625q0 178 50 330.5t144.5 265t226.5 176t296 63.5q137 0 251.5 -45t196.5 -127q12 -12 15.5 -27.5t-3 -27.5t-17.5 -19.5t-25.5 -5.5t-28.5 17q-80 80 -176 115.5t-219 35.5q-188 0 -327.5 -97t-215.5 -267t-76 -389q0 -199 62.5 -322t176 -178t269.5 -55 q111 0 204 34.5t181 116.5q14 14 28.5 15.5t26 -6t16.5 -19.5t2 -27.5t-18 -27.5q-98 -88 -205.5 -129t-240.5 -41q-178 0 -312.5 68.5t-208 209.5t-73.5 363zM551.5 -313.5q5.5 14.5 18.5 20.5t32 -2q25 -10 53.5 -15t66.5 -5q57 0 96.5 23.5t39.5 68.5q0 29 -18.5 45 t-53.5 16q-16 0 -38.5 -3t-43.5 -9q-14 -4 -25.5 -4t-17.5 6t-7 14t5 27l55 172h78l-51 -154l-37 4q27 6 50.5 10.5t43.5 4.5q59 0 100.5 -32t41.5 -91q0 -76 -66 -124t-166 -48q-35 0 -69.5 6t-63.5 18q-18 8 -23.5 22.5t0 29z" />
<glyph unicode="&#xc8;" horiz-adv-x="1167" d="M127 55l213 1342q4 25 18.5 36t36.5 11h785q20 0 31.5 -7t11.5 -24q0 -27 -14.5 -38t-32.5 -11h-754l-94 -592h704q20 0 31.5 -7t11.5 -24q0 -27 -14 -38t-33 -11h-715l-96 -612h746q20 0 31.5 -7t11.5 -24q0 -27 -14.5 -38t-33.5 -11h-784q-27 0 -39 14.5t-8 40.5z M572.5 1889.5q0.5 15.5 11 25.5t25 13t29.5 -2t26 -23l180 -293q8 -14 4 -26.5t-14.5 -20t-24 -5t-23.5 16.5l-202 283q-12 16 -11.5 31.5z" />
<glyph unicode="&#xc9;" horiz-adv-x="1167" d="M127 55l213 1342q4 25 18.5 36t36.5 11h785q20 0 31.5 -7t11.5 -24q0 -27 -14.5 -38t-32.5 -11h-754l-94 -592h704q20 0 31.5 -7t11.5 -24q0 -27 -14 -38t-33 -11h-715l-96 -612h746q20 0 31.5 -7t11.5 -24q0 -27 -14.5 -38t-33.5 -11h-784q-27 0 -39 14.5t-8 40.5z M816 1583q-3 12 7 25l230 297q12 16 28.5 21t29.5 1t22.5 -13t9.5 -23.5t-15 -30.5l-251 -287q-12 -12 -25.5 -14.5t-23 5t-12.5 19.5z" />
<glyph unicode="&#xca;" horiz-adv-x="1167" d="M127 55l213 1342q4 25 18.5 36t36.5 11h785q20 0 31.5 -7t11.5 -24q0 -27 -14.5 -38t-32.5 -11h-754l-94 -592h704q20 0 31.5 -7t11.5 -24q0 -27 -14 -38t-33 -11h-715l-96 -612h746q20 0 31.5 -7t11.5 -24q0 -27 -14.5 -38t-33.5 -11h-784q-27 0 -39 14.5t-8 40.5z M532.5 1574q-2.5 11 10.5 25l233 285q18 23 35.5 34t42.5 11q23 0 36 -11t27 -34l175 -287q10 -14 5 -26t-16.5 -16.5t-26 0t-24.5 18.5l-184 264l-254 -270q-12 -12 -25.5 -14.5t-22.5 4t-11.5 17.5z" />
<glyph unicode="&#xcb;" horiz-adv-x="1167" d="M127 55l213 1342q4 25 18.5 36t36.5 11h785q20 0 31.5 -7t11.5 -24q0 -27 -14.5 -38t-32.5 -11h-754l-94 -592h704q20 0 31.5 -7t11.5 -24q0 -27 -14 -38t-33 -11h-715l-96 -612h746q20 0 31.5 -7t11.5 -24q0 -27 -14.5 -38t-33.5 -11h-784q-27 0 -39 14.5t-8 40.5z M625 1729q0 41 20.5 60t56.5 19q29 0 44.5 -14t15.5 -41q0 -39 -20.5 -59.5t-57.5 -20.5q-29 0 -44 14.5t-15 41.5zM954 1729q0 41 20.5 60t57.5 19q29 0 44.5 -14t15.5 -41q0 -39 -20.5 -59.5t-57.5 -20.5q-29 0 -44.5 14.5t-15.5 41.5z" />
<glyph unicode="&#xcc;" horiz-adv-x="479" d="M125 41l217 1370q4 23 15.5 34t31.5 11t30.5 -13t6.5 -40l-217 -1370q-2 -20 -13 -32.5t-34 -12.5q-20 0 -30.5 13t-6.5 40zM152.5 1889.5q0.5 15.5 11 25.5t25 13t29.5 -2t26 -23l180 -293q8 -14 4 -26.5t-14.5 -20t-24 -5t-23.5 16.5l-202 283q-12 16 -11.5 31.5z" />
<glyph unicode="&#xcd;" horiz-adv-x="479" d="M125 41l217 1370q4 23 15.5 34t31.5 11t30.5 -13t6.5 -40l-217 -1370q-2 -20 -13 -32.5t-34 -12.5q-20 0 -30.5 13t-6.5 40zM396 1583q-3 12 7 25l230 297q12 16 28.5 21t29.5 1t22.5 -13t9.5 -23.5t-15 -30.5l-251 -287q-12 -12 -25.5 -14.5t-23 5t-12.5 19.5z" />
<glyph unicode="&#xce;" horiz-adv-x="479" d="M112.5 1574q-2.5 11 10.5 25l233 285q18 23 35.5 34t42.5 11q23 0 36 -11t27 -34l175 -287q10 -14 5 -26t-16.5 -16.5t-26 0t-24.5 18.5l-184 264l-254 -270q-12 -12 -25.5 -14.5t-22.5 4t-11.5 17.5zM125 41l217 1370q4 23 15.5 34t31.5 11t30.5 -13t6.5 -40l-217 -1370 q-2 -20 -13 -32.5t-34 -12.5q-20 0 -30.5 13t-6.5 40z" />
<glyph unicode="&#xcf;" horiz-adv-x="479" d="M125 41l217 1370q4 23 15.5 34t31.5 11t30.5 -13t6.5 -40l-217 -1370q-2 -20 -13 -32.5t-34 -12.5q-20 0 -30.5 13t-6.5 40zM205 1729q0 41 20.5 60t56.5 19q29 0 44.5 -14t15.5 -41q0 -39 -20.5 -59.5t-57.5 -20.5q-29 0 -44 14.5t-15 41.5zM534 1729q0 41 20.5 60 t57.5 19q29 0 44.5 -14t15.5 -41q0 -39 -20.5 -59.5t-57.5 -20.5q-29 0 -44.5 14.5t-15.5 41.5z" />
<glyph unicode="&#xd0;" horiz-adv-x="1484" d="M39 729q0 23 13 33t34 10h618q20 0 31.5 -8t11.5 -23q0 -20 -12 -32.5t-35 -12.5h-618q-20 0 -31.5 9.5t-11.5 23.5zM127 55l213 1342q4 25 18.5 36t36.5 11h342q313 0 483.5 -154.5t170.5 -437.5q0 -174 -46.5 -327.5t-144.5 -271.5t-250.5 -185.5t-367.5 -67.5h-408 q-27 0 -39 14.5t-8 40.5zM217 80h369q197 0 333 61.5t220 170t121.5 247.5t37.5 293q0 250 -141 381t-422 131h-313z" />
<glyph unicode="&#xd1;" horiz-adv-x="1499" d="M125 37l219 1378q4 23 15.5 32t27.5 9t25.5 -7t17.5 -24l764 -1339h-37l211 1329q4 23 15.5 32t31.5 9q18 0 26.5 -13t4.5 -36l-219 -1378q-2 -20 -12.5 -30.5t-26.5 -10.5t-25.5 8t-19.5 22l-764 1340h35l-211 -1329q-2 -20 -13.5 -30.5t-31.5 -10.5q-18 0 -26.5 13 t-6.5 36zM524 1659q29 106 87.5 160.5t139.5 54.5q55 0 103.5 -26.5t92.5 -60.5t85 -60.5t82 -26.5q55 0 94 39t62 114q4 16 14 23.5t25 5.5q16 -2 23 -12t3 -29q-27 -106 -85 -160.5t-142 -54.5q-55 0 -103.5 26.5t-92.5 60.5t-85 60.5t-82 26.5q-55 0 -94 -38t-61 -115 q-4 -14 -13.5 -22.5t-25.5 -6.5q-14 2 -22.5 12t-4.5 29z" />
<glyph unicode="&#xd2;" horiz-adv-x="1538" d="M168 592q0 182 45 340t135 276.5t223.5 185t307.5 66.5q172 0 299 -69.5t195.5 -204.5t68.5 -334q0 -182 -45 -340t-135.5 -276.5t-222.5 -185t-308 -66.5q-172 0 -298 69.5t-195.5 205.5t-69.5 333zM260 592q0 -266 126 -395t349 -129q201 0 337 103t207 281.5t71 399.5 q0 266 -126 395t-352 129q-199 0 -335 -103.5t-206.5 -280.5t-70.5 -400zM662.5 1889.5q0.5 15.5 11 25.5t25 13t29.5 -2t26 -23l180 -293q8 -14 4 -26.5t-14.5 -20t-24 -5t-23.5 16.5l-202 283q-12 16 -11.5 31.5z" />
<glyph unicode="&#xd3;" horiz-adv-x="1538" d="M168 592q0 182 45 340t135 276.5t223.5 185t307.5 66.5q172 0 299 -69.5t195.5 -204.5t68.5 -334q0 -182 -45 -340t-135.5 -276.5t-222.5 -185t-308 -66.5q-172 0 -298 69.5t-195.5 205.5t-69.5 333zM260 592q0 -266 126 -395t349 -129q201 0 337 103t207 281.5t71 399.5 q0 266 -126 395t-352 129q-199 0 -335 -103.5t-206.5 -280.5t-70.5 -400zM906 1583q-3 12 7 25l230 297q12 16 28.5 21t29.5 1t22.5 -13t9.5 -23.5t-15 -30.5l-251 -287q-12 -12 -25.5 -14.5t-23 5t-12.5 19.5z" />
<glyph unicode="&#xd4;" horiz-adv-x="1538" d="M168 592q0 182 45 340t135 276.5t223.5 185t307.5 66.5q172 0 299 -69.5t195.5 -204.5t68.5 -334q0 -182 -45 -340t-135.5 -276.5t-222.5 -185t-308 -66.5q-172 0 -298 69.5t-195.5 205.5t-69.5 333zM260 592q0 -266 126 -395t349 -129q201 0 337 103t207 281.5t71 399.5 q0 266 -126 395t-352 129q-199 0 -335 -103.5t-206.5 -280.5t-70.5 -400zM622.5 1574q-2.5 11 10.5 25l233 285q18 23 35.5 34t42.5 11q23 0 36 -11t27 -34l175 -287q10 -14 5 -26t-16.5 -16.5t-26 0t-24.5 18.5l-184 264l-254 -270q-12 -12 -25.5 -14.5t-22.5 4t-11.5 17.5 z" />
<glyph unicode="&#xd5;" horiz-adv-x="1538" d="M168 592q0 182 45 340t135 276.5t223.5 185t307.5 66.5q172 0 299 -69.5t195.5 -204.5t68.5 -334q0 -182 -45 -340t-135.5 -276.5t-222.5 -185t-308 -66.5q-172 0 -298 69.5t-195.5 205.5t-69.5 333zM260 592q0 -266 126 -395t349 -129q201 0 337 103t207 281.5t71 399.5 q0 266 -126 395t-352 129q-199 0 -335 -103.5t-206.5 -280.5t-70.5 -400zM524 1659q29 106 87.5 160.5t139.5 54.5q55 0 103.5 -26.5t92.5 -60.5t85 -60.5t82 -26.5q55 0 94 39t62 114q4 16 14 23.5t25 5.5q16 -2 23 -12t3 -29q-27 -106 -85 -160.5t-142 -54.5 q-55 0 -103.5 26.5t-92.5 60.5t-85 60.5t-82 26.5q-55 0 -94 -38t-61 -115q-4 -14 -13.5 -22.5t-25.5 -6.5q-14 2 -22.5 12t-4.5 29z" />
<glyph unicode="&#xd6;" horiz-adv-x="1538" d="M168 592q0 182 45 340t135 276.5t223.5 185t307.5 66.5q172 0 299 -69.5t195.5 -204.5t68.5 -334q0 -182 -45 -340t-135.5 -276.5t-222.5 -185t-308 -66.5q-172 0 -298 69.5t-195.5 205.5t-69.5 333zM260 592q0 -266 126 -395t349 -129q201 0 337 103t207 281.5t71 399.5 q0 266 -126 395t-352 129q-199 0 -335 -103.5t-206.5 -280.5t-70.5 -400zM715 1729q0 41 20.5 60t56.5 19q29 0 44.5 -14t15.5 -41q0 -39 -20.5 -59.5t-57.5 -20.5q-29 0 -44 14.5t-15 41.5zM1044 1729q0 41 20.5 60t57.5 19q29 0 44.5 -14t15.5 -41q0 -39 -20.5 -59.5 t-57.5 -20.5q-29 0 -44.5 14.5t-15.5 41.5z" />
<glyph unicode="&#xd7;" d="M119 147.5q0 16.5 14 30.5l440 408l-364 399q-10 12 -11 24.5t6 23.5t18 16.5t24.5 3.5t25.5 -17l363 -397l436 401q18 16 34.5 14.5t27 -13t10.5 -28t-15 -30.5l-440 -405l367 -404q10 -12 11 -24.5t-6 -23.5t-18.5 -16.5t-24.5 -3t-26 16.5l-364 399l-437 -401 q-18 -16 -34.5 -14t-26.5 13t-10 27.5z" />
<glyph unicode="&#xd8;" horiz-adv-x="1538" d="M168 592q0 182 45 340t135 276.5t223.5 185t307.5 66.5q172 0 299 -69.5t195.5 -204.5t68.5 -334q0 -182 -45 -340t-135.5 -276.5t-222.5 -185t-308 -66.5q-172 0 -298 69.5t-195.5 205.5t-69.5 333zM225 -8q0 12 11 26l102 140l35 45l803 1085l32 45l105 137 q10 12 22.5 16.5t23.5 0.5t18.5 -13.5t7.5 -21.5t-11 -27l-104 -139l-33 -45l-803 -1085l-35 -45l-102 -138q-10 -12 -22.5 -16t-23.5 0t-18.5 13.5t-7.5 21.5zM260 592q0 -266 126 -395t349 -129q201 0 337 103t207 281.5t71 399.5q0 266 -126 395t-352 129 q-199 0 -335 -103.5t-206.5 -280.5t-70.5 -400z" />
<glyph unicode="&#xd9;" horiz-adv-x="1474" d="M196.5 326.5q-20.5 113.5 4.5 263.5l131 823q4 23 16 33t33 10q20 0 29.5 -13t5.5 -38l-131 -827q-41 -258 59 -384t332 -126q231 0 362 114.5t172 370.5l138 860q4 23 16 33t33 10q20 0 29.5 -13t5.5 -38l-138 -870q-29 -184 -105.5 -306.5t-204.5 -183.5t-308 -61 q-135 0 -235.5 37.5t-162 114.5t-82 190.5zM648.5 1889.5q0.5 15.5 11 25.5t25 13t29.5 -2t26 -23l180 -293q8 -14 4 -26.5t-14.5 -20t-24 -5t-23.5 16.5l-202 283q-12 16 -11.5 31.5z" />
<glyph unicode="&#xda;" horiz-adv-x="1474" d="M196.5 326.5q-20.5 113.5 4.5 263.5l131 823q4 23 16 33t33 10q20 0 29.5 -13t5.5 -38l-131 -827q-41 -258 59 -384t332 -126q231 0 362 114.5t172 370.5l138 860q4 23 16 33t33 10q20 0 29.5 -13t5.5 -38l-138 -870q-29 -184 -105.5 -306.5t-204.5 -183.5t-308 -61 q-135 0 -235.5 37.5t-162 114.5t-82 190.5zM892 1583q-3 12 7 25l230 297q12 16 28.5 21t29.5 1t22.5 -13t9.5 -23.5t-15 -30.5l-251 -287q-12 -12 -25.5 -14.5t-23 5t-12.5 19.5z" />
<glyph unicode="&#xdb;" horiz-adv-x="1474" d="M196.5 326.5q-20.5 113.5 4.5 263.5l131 823q4 23 16 33t33 10q20 0 29.5 -13t5.5 -38l-131 -827q-41 -258 59 -384t332 -126q231 0 362 114.5t172 370.5l138 860q4 23 16 33t33 10q20 0 29.5 -13t5.5 -38l-138 -870q-29 -184 -105.5 -306.5t-204.5 -183.5t-308 -61 q-135 0 -235.5 37.5t-162 114.5t-82 190.5zM608.5 1574q-2.5 11 10.5 25l233 285q18 23 35.5 34t42.5 11q23 0 36 -11t27 -34l175 -287q10 -14 5 -26t-16.5 -16.5t-26 0t-24.5 18.5l-184 264l-254 -270q-12 -12 -25.5 -14.5t-22.5 4t-11.5 17.5z" />
<glyph unicode="&#xdc;" horiz-adv-x="1474" d="M196.5 326.5q-20.5 113.5 4.5 263.5l131 823q4 23 16 33t33 10q20 0 29.5 -13t5.5 -38l-131 -827q-41 -258 59 -384t332 -126q231 0 362 114.5t172 370.5l138 860q4 23 16 33t33 10q20 0 29.5 -13t5.5 -38l-138 -870q-29 -184 -105.5 -306.5t-204.5 -183.5t-308 -61 q-135 0 -235.5 37.5t-162 114.5t-82 190.5zM701 1729q0 41 20.5 60t56.5 19q29 0 44.5 -14t15.5 -41q0 -39 -20.5 -59.5t-57.5 -20.5q-29 0 -44 14.5t-15 41.5zM1030 1729q0 41 20.5 60t57.5 19q29 0 44.5 -14t15.5 -41q0 -39 -20.5 -59.5t-57.5 -20.5q-29 0 -44.5 14.5 t-15.5 41.5z" />
<glyph unicode="&#xdd;" horiz-adv-x="1181" d="M170 1423.5q0 14.5 10 23.5t27 9q18 0 27.5 -8t17.5 -25l387 -669h-33l611 678q10 12 21 18t26 6q14 0 24 -9t11 -24.5t-15 -33.5l-647 -717l35 80l-115 -723q-6 -41 -47 -41q-20 0 -29.5 13t-7.5 36l113 715l8 -80l-414 717q-10 20 -10 34.5zM734 1583q-3 12 7 25 l230 297q12 16 28.5 21t29.5 1t22.5 -13t9.5 -23.5t-15 -30.5l-251 -287q-12 -12 -25.5 -14.5t-23 5t-12.5 19.5z" />
<glyph unicode="&#xde;" horiz-adv-x="1261" d="M125 39l217 1374q4 23 16.5 33t32.5 10t30.5 -14.5t6.5 -36.5l-37 -238h397q205 0 322 -93t117 -283q0 -207 -132 -333t-382 -126h-455l-49 -301q-2 -20 -14 -31.5t-35 -11.5q-20 0 -29.5 13t-5.5 38zM270 412h451q203 0 309.5 96t106.5 280q0 156 -89.5 227.5 t-259.5 71.5h-411z" />
<glyph unicode="&#xdf;" horiz-adv-x="1189" d="M102 39l156 987q33 207 148.5 320.5t312.5 113.5q84 0 144.5 -30.5t92 -82t31.5 -112.5q0 -106 -57.5 -172t-149.5 -135q-49 -35 -86 -66t-58.5 -65.5t-21.5 -79.5q0 -53 44 -95t153 -79q129 -45 197.5 -105.5t68.5 -169.5q0 -88 -46 -151.5t-127 -98t-187 -34.5 q-100 0 -193.5 28.5t-150.5 75.5q-14 12 -17.5 25.5t-0.5 26t13.5 19.5t25 6t30.5 -13q55 -41 128 -65t155 -24q135 0 207.5 51.5t72.5 147.5q0 61 -42 112.5t-167 92.5q-143 49 -198.5 106.5t-55.5 145.5q0 51 18.5 91t65.5 83t129 102q76 55 119 105.5t43 126.5 q0 66 -47 109.5t-137 43.5q-156 0 -249 -93t-122 -263l-158 -993q-2 -20 -14 -31.5t-35 -11.5q-20 0 -29.5 13t-5.5 38z" />
<glyph unicode="&#xe0;" horiz-adv-x="1052" d="M100 274q0 104 58.5 168t183.5 92.5t322 28.5h165l-12 -76h-121q-190 0 -298.5 -19t-154.5 -65.5t-46 -123.5q0 -106 70.5 -162t158.5 -56q82 0 156.5 39t128 113t69.5 178l41 254q23 139 -31.5 211t-197.5 72q-82 0 -154.5 -16.5t-138.5 -63.5q-16 -12 -31.5 -12t-26 8 t-12.5 20.5t4.5 26.5t24.5 27q72 47 160 68.5t178 21.5q121 0 195.5 -46.5t103.5 -133.5t8 -210l-94 -587q-2 -20 -14.5 -31.5t-32.5 -11.5t-28.5 14t-6.5 37l31 199h20q-27 -86 -83 -142.5t-128.5 -84t-146.5 -27.5q-82 0 -156 35.5t-119 101t-45 153.5zM330.5 1515.5 q0.5 14.5 11 23.5t25 12t29.5 -4t25 -23l220 -357q10 -16 7 -29.5t-13.5 -19.5t-24 -2.5t-23.5 17.5l-245 352q-12 16 -11.5 30.5z" />
<glyph unicode="&#xe1;" horiz-adv-x="1052" d="M100 274q0 104 58.5 168t183.5 92.5t322 28.5h165l-12 -76h-121q-190 0 -298.5 -19t-154.5 -65.5t-46 -123.5q0 -106 70.5 -162t158.5 -56q82 0 156.5 39t128 113t69.5 178l41 254q23 139 -31.5 211t-197.5 72q-82 0 -154.5 -16.5t-138.5 -63.5q-16 -12 -31.5 -12t-26 8 t-12.5 20.5t4.5 26.5t24.5 27q72 47 160 68.5t178 21.5q121 0 195.5 -46.5t103.5 -133.5t8 -210l-94 -587q-2 -20 -14.5 -31.5t-32.5 -11.5t-28.5 14t-6.5 37l31 199h20q-27 -86 -83 -142.5t-128.5 -84t-146.5 -27.5q-82 0 -156 35.5t-119 101t-45 153.5zM617 1136.5 q-3 12.5 7 26.5l242 359q14 20 29.5 26t29 3t22.5 -14t9 -26.5t-12 -31.5l-269 -349q-10 -14 -23 -16t-22.5 4t-12.5 18.5z" />
<glyph unicode="&#xe2;" horiz-adv-x="1052" d="M100 274q0 104 58.5 168t183.5 92.5t322 28.5h165l-12 -76h-121q-190 0 -298.5 -19t-154.5 -65.5t-46 -123.5q0 -106 70.5 -162t158.5 -56q82 0 156.5 39t128 113t69.5 178l41 254q23 139 -31.5 211t-197.5 72q-82 0 -154.5 -16.5t-138.5 -63.5q-16 -12 -31.5 -12t-26 8 t-12.5 20.5t4.5 26.5t24.5 27q72 47 160 68.5t178 21.5q121 0 195.5 -46.5t103.5 -133.5t8 -210l-94 -587q-2 -20 -14.5 -31.5t-32.5 -11.5t-28.5 14t-6.5 37l31 199h20q-27 -86 -83 -142.5t-128.5 -84t-146.5 -27.5q-82 0 -156 35.5t-119 101t-45 153.5zM377.5 1132.5 q-3.5 12.5 7.5 28.5l231 355q16 23 31.5 29.5t34.5 6.5q18 0 31.5 -8t21.5 -28l155 -359q6 -16 1 -26.5t-17 -14.5t-24.5 0t-18.5 17l-158 321l-235 -324q-10 -12 -23.5 -16t-23.5 1t-13.5 17.5z" />
<glyph unicode="&#xe3;" horiz-adv-x="1052" d="M100 274q0 104 58.5 168t183.5 92.5t322 28.5h165l-12 -76h-121q-190 0 -298.5 -19t-154.5 -65.5t-46 -123.5q0 -106 70.5 -162t158.5 -56q82 0 156.5 39t128 113t69.5 178l41 254q23 139 -31.5 211t-197.5 72q-82 0 -154.5 -16.5t-138.5 -63.5q-16 -12 -31.5 -12t-26 8 t-12.5 20.5t4.5 26.5t24.5 27q72 47 160 68.5t178 21.5q121 0 195.5 -46.5t103.5 -133.5t8 -210l-94 -587q-2 -20 -14.5 -31.5t-32.5 -11.5t-28.5 14t-6.5 37l31 199h20q-27 -86 -83 -142.5t-128.5 -84t-146.5 -27.5q-82 0 -156 35.5t-119 101t-45 153.5zM309 1253 q12 53 31.5 93t46 68t59.5 42t70 14q49 0 83.5 -26.5t63.5 -60t58.5 -60.5t66.5 -27q49 0 84 40t55 112q4 16 15.5 24.5t25.5 6.5q16 -2 22.5 -12.5t2.5 -26.5q-16 -70 -46 -118t-70 -73.5t-89 -25.5t-85 26.5t-64.5 60t-58 60.5t-66.5 27q-49 0 -84 -40t-56 -112 q-4 -16 -14.5 -24.5t-26.5 -6.5q-14 2 -21 12.5t-3 26.5z" />
<glyph unicode="&#xe4;" horiz-adv-x="1052" d="M100 274q0 104 58.5 168t183.5 92.5t322 28.5h165l-12 -76h-121q-190 0 -298.5 -19t-154.5 -65.5t-46 -123.5q0 -106 70.5 -162t158.5 -56q82 0 156.5 39t128 113t69.5 178l41 254q23 139 -31.5 211t-197.5 72q-82 0 -154.5 -16.5t-138.5 -63.5q-16 -12 -31.5 -12t-26 8 t-12.5 20.5t4.5 26.5t24.5 27q72 47 160 68.5t178 21.5q121 0 195.5 -46.5t103.5 -133.5t8 -210l-94 -587q-2 -20 -14.5 -31.5t-32.5 -11.5t-28.5 14t-6.5 37l31 199h20q-27 -86 -83 -142.5t-128.5 -84t-146.5 -27.5q-82 0 -156 35.5t-119 101t-45 153.5zM434 1319 q0 41 20.5 60.5t57.5 19.5q29 0 44 -14.5t15 -41.5q0 -39 -20.5 -59t-57.5 -20q-29 0 -44 14t-15 41zM764 1319q0 41 20 60.5t57 19.5q29 0 44.5 -14.5t15.5 -41.5q0 -39 -20.5 -59t-57.5 -20q-29 0 -44 14t-15 41z" />
<glyph unicode="&#xe5;" horiz-adv-x="1052" d="M100 274q0 104 58.5 168t183.5 92.5t322 28.5h165l-12 -76h-121q-190 0 -298.5 -19t-154.5 -65.5t-46 -123.5q0 -106 70.5 -162t158.5 -56q82 0 156.5 39t128 113t69.5 178l41 254q23 139 -31.5 211t-197.5 72q-82 0 -154.5 -16.5t-138.5 -63.5q-16 -12 -31.5 -12t-26 8 t-12.5 20.5t4.5 26.5t24.5 27q72 47 160 68.5t178 21.5q121 0 195.5 -46.5t103.5 -133.5t8 -210l-94 -587q-2 -20 -14.5 -31.5t-32.5 -11.5t-28.5 14t-6.5 37l31 199h20q-27 -86 -83 -142.5t-128.5 -84t-146.5 -27.5q-82 0 -156 35.5t-119 101t-45 153.5zM442 1346 q0 63 30.5 113t83 81t115.5 31q66 0 117 -31t82 -81t31 -113q0 -61 -31 -112.5t-82 -82.5t-117 -31q-63 0 -115.5 31t-83 82t-30.5 113zM512 1346q0 -68 44.5 -114t114.5 -46q72 0 116 46t44 114t-44 113.5t-116 45.5q-70 0 -114.5 -46t-44.5 -113z" />
<glyph unicode="&#xe6;" horiz-adv-x="1755" d="M100 274q0 104 58.5 167t183.5 91.5t322 28.5h165l-12 -76h-121q-190 0 -298.5 -19.5t-154.5 -64.5t-46 -122q0 -106 70.5 -162t158.5 -56q82 0 157.5 35t131 103.5t71.5 173.5l41 252q25 154 -33.5 228.5t-201.5 74.5q-82 0 -154.5 -16.5t-138.5 -63.5 q-16 -12 -31.5 -12t-26 8t-12.5 20.5t4.5 26.5t24.5 27q72 47 160 68.5t178 21.5q150 0 232.5 -73t91.5 -210h-62q61 125 173 204t269 79q111 0 186 -39t118 -105.5t57 -151.5t2 -175l-2 -17q-2 -14 -15.5 -24.5t-31.5 -10.5h-766l12 76h762l-39 -31q16 111 -7.5 201 t-90 144.5t-187.5 54.5q-129 0 -215 -58.5t-132 -147.5t-62 -183l-6 -37q-33 -197 56 -319t275 -122q86 0 158 20.5t141 74.5q18 14 33 15t25 -6t13 -19.5t-3 -28t-22 -27.5q-68 -51 -159 -79.5t-181 -28.5q-180 0 -291 90t-133 252h55q-47 -176 -166 -259t-264 -83 q-82 0 -156 35.5t-119 101t-45 153.5z" />
<glyph unicode="&#xe7;" horiz-adv-x="931" d="M106 414q0 109 29 214t89.5 191t155.5 137.5t228 51.5q80 0 155 -25t126 -65q18 -14 26.5 -31t6.5 -31t-11.5 -22.5t-21.5 -7.5t-29 14q-55 47 -117.5 67.5t-138.5 20.5q-109 0 -186.5 -44t-126.5 -119t-72.5 -166t-23.5 -185q0 -160 74.5 -255.5t242.5 -95.5 q57 0 119.5 19.5t118.5 62.5q14 12 28.5 12.5t23.5 -7t13 -19.5t0 -25.5t-16 -23.5q-57 -47 -136 -72.5t-155 -25.5q-137 0 -226 54t-132.5 151.5t-43.5 224.5zM287.5 -313.5q5.5 14.5 18.5 20.5t32 -2q25 -10 53.5 -15t66.5 -5q57 0 96.5 23.5t39.5 68.5q0 29 -18.5 45 t-53.5 16q-16 0 -38.5 -3t-43.5 -9q-14 -4 -25.5 -4t-17.5 6t-7 14t5 27l55 172h78l-51 -154l-37 4q27 6 50.5 10.5t43.5 4.5q59 0 100.5 -32t41.5 -91q0 -76 -66 -124t-166 -48q-35 0 -69.5 6t-63.5 18q-18 8 -23.5 22.5t0 29z" />
<glyph unicode="&#xe8;" horiz-adv-x="1071" d="M104 410q0 158 59.5 294t174.5 220t278 84q111 0 186 -40t119 -107.5t57 -153.5t1 -177q-4 -29 -14.5 -40t-36.5 -11h-764l12 76h762l-39 -25q16 111 -7.5 201t-90 144.5t-187.5 54.5q-129 0 -214 -58.5t-132 -147.5t-63 -183l-6 -37q-33 -197 56 -319t275 -122 q86 0 158 21.5t141 73.5q18 14 33 15t25 -6t13 -19.5t-3 -28t-23 -27.5q-68 -51 -158.5 -79.5t-180.5 -28.5q-133 0 -230.5 51t-149 146t-51.5 229zM341.5 1515.5q0.5 14.5 11 23.5t25 12t29.5 -4t25 -23l220 -357q10 -16 7 -29.5t-13.5 -19.5t-24 -2.5t-23.5 17.5l-245 352 q-12 16 -11.5 30.5z" />
<glyph unicode="&#xe9;" horiz-adv-x="1071" d="M104 410q0 158 59.5 294t174.5 220t278 84q111 0 186 -40t119 -107.5t57 -153.5t1 -177q-4 -29 -14.5 -40t-36.5 -11h-764l12 76h762l-39 -25q16 111 -7.5 201t-90 144.5t-187.5 54.5q-129 0 -214 -58.5t-132 -147.5t-63 -183l-6 -37q-33 -197 56 -319t275 -122 q86 0 158 21.5t141 73.5q18 14 33 15t25 -6t13 -19.5t-3 -28t-23 -27.5q-68 -51 -158.5 -79.5t-180.5 -28.5q-133 0 -230.5 51t-149 146t-51.5 229zM628 1136.5q-3 12.5 7 26.5l242 359q14 20 29.5 26t29 3t22.5 -14t9 -26.5t-12 -31.5l-269 -349q-10 -14 -23 -16t-22.5 4 t-12.5 18.5z" />
<glyph unicode="&#xea;" horiz-adv-x="1071" d="M104 410q0 158 59.5 294t174.5 220t278 84q111 0 186 -40t119 -107.5t57 -153.5t1 -177q-4 -29 -14.5 -40t-36.5 -11h-764l12 76h762l-39 -25q16 111 -7.5 201t-90 144.5t-187.5 54.5q-129 0 -214 -58.5t-132 -147.5t-63 -183l-6 -37q-33 -197 56 -319t275 -122 q86 0 158 21.5t141 73.5q18 14 33 15t25 -6t13 -19.5t-3 -28t-23 -27.5q-68 -51 -158.5 -79.5t-180.5 -28.5q-133 0 -230.5 51t-149 146t-51.5 229zM388.5 1132.5q-3.5 12.5 7.5 28.5l231 355q16 23 31.5 29.5t34.5 6.5q18 0 31.5 -8t21.5 -28l155 -359q6 -16 1 -26.5 t-17 -14.5t-24.5 0t-18.5 17l-158 321l-235 -324q-10 -12 -23.5 -16t-23.5 1t-13.5 17.5z" />
<glyph unicode="&#xeb;" horiz-adv-x="1071" d="M104 410q0 158 59.5 294t174.5 220t278 84q111 0 186 -40t119 -107.5t57 -153.5t1 -177q-4 -29 -14.5 -40t-36.5 -11h-764l12 76h762l-39 -25q16 111 -7.5 201t-90 144.5t-187.5 54.5q-129 0 -214 -58.5t-132 -147.5t-63 -183l-6 -37q-33 -197 56 -319t275 -122 q86 0 158 21.5t141 73.5q18 14 33 15t25 -6t13 -19.5t-3 -28t-23 -27.5q-68 -51 -158.5 -79.5t-180.5 -28.5q-133 0 -230.5 51t-149 146t-51.5 229zM445 1319q0 41 20.5 60.5t57.5 19.5q29 0 44 -14.5t15 -41.5q0 -39 -20.5 -59t-57.5 -20q-29 0 -44 14t-15 41zM775 1319 q0 41 20 60.5t57 19.5q29 0 44.5 -14.5t15.5 -41.5q0 -39 -20.5 -59t-57.5 -20q-29 0 -44 14t-15 41z" />
<glyph unicode="&#xec;" horiz-adv-x="434" d="M15.5 1515.5q0.5 14.5 11 23.5t25 12t29.5 -4t25 -23l220 -357q10 -16 7 -29.5t-13.5 -19.5t-24 -2.5t-23.5 17.5l-245 352q-12 16 -11.5 30.5zM102 39l146 922q4 23 16 33t33 10q20 0 29.5 -13.5t5.5 -38.5l-146 -921q-2 -20 -14 -31.5t-35 -11.5q-20 0 -29.5 13 t-5.5 38z" />
<glyph unicode="&#xed;" horiz-adv-x="434" d="M102 39l146 922q4 23 16 33t33 10q20 0 29.5 -13.5t5.5 -38.5l-146 -921q-2 -20 -14 -31.5t-35 -11.5q-20 0 -29.5 13t-5.5 38zM302 1136.5q-3 12.5 7 26.5l242 359q14 20 29.5 26t29 3t22.5 -14t9 -26.5t-12 -31.5l-269 -349q-10 -14 -23 -16t-22.5 4t-12.5 18.5z" />
<glyph unicode="&#xee;" horiz-adv-x="434" d="M62.5 1132.5q-3.5 12.5 7.5 28.5l231 355q16 23 31.5 29.5t34.5 6.5q18 0 31.5 -8t21.5 -28l155 -359q6 -16 1 -26.5t-17 -14.5t-24.5 0t-18.5 17l-158 321l-235 -324q-10 -12 -23.5 -16t-23.5 1t-13.5 17.5zM102 39l146 922q4 23 16 33t33 10q20 0 29.5 -13.5t5.5 -38.5 l-146 -921q-2 -20 -14 -31.5t-35 -11.5q-20 0 -29.5 13t-5.5 38z" />
<glyph unicode="&#xef;" horiz-adv-x="434" d="M102 39l146 922q4 23 16 33t33 10q20 0 29.5 -13.5t5.5 -38.5l-146 -921q-2 -20 -14 -31.5t-35 -11.5q-20 0 -29.5 13t-5.5 38zM119 1319q0 41 20.5 60.5t57.5 19.5q29 0 44 -14.5t15 -41.5q0 -39 -20.5 -59t-57.5 -20q-29 0 -44 14t-15 41zM449 1319q0 41 20 60.5 t57 19.5q29 0 44.5 -14.5t15.5 -41.5q0 -39 -20.5 -59t-57.5 -20q-29 0 -44 14t-15 41z" />
<glyph unicode="&#xf0;" horiz-adv-x="1107" d="M98 377q0 164 65.5 287.5t178.5 194.5t256 71q100 0 180 -38t130 -114t55 -192h-29q10 227 -47.5 400t-192.5 280l27 -2l-289 -123q-18 -8 -31.5 -2t-19.5 19t-1 27.5t23 22.5l252 107v-21q-41 27 -88 49.5t-100 38.5q-23 6 -30 20.5t-3 28t19.5 19.5t35.5 0 q72 -25 130.5 -52.5t109.5 -66.5l-29 2l271 113q23 10 37 4t19 -20.5t-1 -29t-27 -22.5l-237 -98l4 20q86 -72 140.5 -171t81 -221t24.5 -269q0 -123 -28 -239.5t-87 -211t-156.5 -149.5t-238.5 -55q-115 0 -206 47t-144.5 136t-53.5 210zM186 383q0 -154 85.5 -237 t232.5 -83q113 0 204 54.5t146 159t55 253.5q0 154 -85 237t-232 83q-111 0 -203 -54.5t-147.5 -159t-55.5 -253.5z" />
<glyph unicode="&#xf1;" horiz-adv-x="1132" d="M104 43l146 918q4 23 16.5 33t32.5 10q18 0 27.5 -13.5t5.5 -38.5l-33 -207h-23q51 123 153.5 193t248.5 70q111 0 185.5 -44t106 -133.5t9.5 -226.5l-92 -577q-2 -18 -14.5 -28.5t-34.5 -10.5q-20 0 -29.5 13t-5.5 38l90 567q27 164 -28.5 243t-188.5 79 q-176 0 -277.5 -105.5t-130.5 -281.5l-80 -510q-6 -43 -49 -43q-20 0 -29.5 15t-5.5 40zM342 1253q12 53 31.5 93t46 68t59.5 42t70 14q49 0 83.5 -26.5t63.5 -60t58.5 -60.5t66.5 -27q49 0 84 40t55 112q4 16 15.5 24.5t25.5 6.5q16 -2 22.5 -12.5t2.5 -26.5 q-16 -70 -46 -118t-70 -73.5t-89 -25.5t-85 26.5t-64.5 60t-58 60.5t-66.5 27q-49 0 -84 -40t-56 -112q-4 -16 -14.5 -24.5t-26.5 -6.5q-14 2 -21 12.5t-3 26.5z" />
<glyph unicode="&#xf2;" horiz-adv-x="1101" d="M104 410q0 119 32 226t95.5 191t155.5 132.5t213 48.5q123 0 212 -51.5t137 -146.5t48 -228q0 -119 -31.5 -226.5t-95 -191.5t-155.5 -132t-213 -48t-211 51t-138.5 146t-48.5 229zM193 406q0 -168 83 -255.5t230 -87.5q131 0 221 72t136 190.5t46 260.5q0 170 -83 256 t-230 86q-131 0 -221 -72t-136 -189.5t-46 -260.5zM351.5 1515.5q0.5 14.5 11 23.5t25 12t29.5 -4t25 -23l220 -357q10 -16 7 -29.5t-13.5 -19.5t-24 -2.5t-23.5 17.5l-245 352q-12 16 -11.5 30.5z" />
<glyph unicode="&#xf3;" horiz-adv-x="1101" d="M104 410q0 119 32 226t95.5 191t155.5 132.5t213 48.5q123 0 212 -51.5t137 -146.5t48 -228q0 -119 -31.5 -226.5t-95 -191.5t-155.5 -132t-213 -48t-211 51t-138.5 146t-48.5 229zM193 406q0 -168 83 -255.5t230 -87.5q131 0 221 72t136 190.5t46 260.5q0 170 -83 256 t-230 86q-131 0 -221 -72t-136 -189.5t-46 -260.5zM638 1136.5q-3 12.5 7 26.5l242 359q14 20 29.5 26t29 3t22.5 -14t9 -26.5t-12 -31.5l-269 -349q-10 -14 -23 -16t-22.5 4t-12.5 18.5z" />
<glyph unicode="&#xf4;" horiz-adv-x="1101" d="M104 410q0 119 32 226t95.5 191t155.5 132.5t213 48.5q123 0 212 -51.5t137 -146.5t48 -228q0 -119 -31.5 -226.5t-95 -191.5t-155.5 -132t-213 -48t-211 51t-138.5 146t-48.5 229zM193 406q0 -168 83 -255.5t230 -87.5q131 0 221 72t136 190.5t46 260.5q0 170 -83 256 t-230 86q-131 0 -221 -72t-136 -189.5t-46 -260.5zM398.5 1132.5q-3.5 12.5 7.5 28.5l231 355q16 23 31.5 29.5t34.5 6.5q18 0 31.5 -8t21.5 -28l155 -359q6 -16 1 -26.5t-17 -14.5t-24.5 0t-18.5 17l-158 321l-235 -324q-10 -12 -23.5 -16t-23.5 1t-13.5 17.5z" />
<glyph unicode="&#xf5;" horiz-adv-x="1101" d="M104 410q0 119 32 226t95.5 191t155.5 132.5t213 48.5q123 0 212 -51.5t137 -146.5t48 -228q0 -119 -31.5 -226.5t-95 -191.5t-155.5 -132t-213 -48t-211 51t-138.5 146t-48.5 229zM193 406q0 -168 83 -255.5t230 -87.5q131 0 221 72t136 190.5t46 260.5q0 170 -83 256 t-230 86q-131 0 -221 -72t-136 -189.5t-46 -260.5zM330 1253q12 53 31.5 93t46 68t59.5 42t70 14q49 0 83.5 -26.5t63.5 -60t58.5 -60.5t66.5 -27q49 0 84 40t55 112q4 16 15.5 24.5t25.5 6.5q16 -2 22.5 -12.5t2.5 -26.5q-16 -70 -46 -118t-70 -73.5t-89 -25.5t-85 26.5 t-64.5 60t-58 60.5t-66.5 27q-49 0 -84 -40t-56 -112q-4 -16 -14.5 -24.5t-26.5 -6.5q-14 2 -21 12.5t-3 26.5z" />
<glyph unicode="&#xf6;" horiz-adv-x="1101" d="M104 410q0 119 32 226t95.5 191t155.5 132.5t213 48.5q123 0 212 -51.5t137 -146.5t48 -228q0 -119 -31.5 -226.5t-95 -191.5t-155.5 -132t-213 -48t-211 51t-138.5 146t-48.5 229zM193 406q0 -168 83 -255.5t230 -87.5q131 0 221 72t136 190.5t46 260.5q0 170 -83 256 t-230 86q-131 0 -221 -72t-136 -189.5t-46 -260.5zM455 1319q0 41 20.5 60.5t57.5 19.5q29 0 44 -14.5t15 -41.5q0 -39 -20.5 -59t-57.5 -20q-29 0 -44 14t-15 41zM785 1319q0 41 20 60.5t57 19.5q29 0 44.5 -14.5t15.5 -41.5q0 -39 -20.5 -59t-57.5 -20q-29 0 -44 14 t-15 41z" />
<glyph unicode="&#xf7;" d="M117 580q0 23 13 35t36 12h930q23 0 34 -8.5t11 -24.5q0 -23 -13.5 -35t-35.5 -12h-930q-20 0 -32.5 8t-12.5 25zM471 164q0 39 25.5 64.5t66.5 25.5q33 0 49.5 -18.5t16.5 -47.5q0 -39 -24.5 -64.5t-65.5 -25.5q-33 0 -50.5 18.5t-17.5 47.5zM602 985q0 39 25.5 64.5 t66.5 25.5q33 0 49.5 -18.5t16.5 -46.5q0 -39 -24.5 -64.5t-65.5 -25.5q-33 0 -50.5 18t-17.5 47z" />
<glyph unicode="&#xf8;" horiz-adv-x="1101" d="M104 410q0 119 32 226t95.5 191t155.5 132.5t213 48.5q123 0 212 -51.5t137 -146.5t48 -228q0 -119 -31.5 -226.5t-95 -191.5t-155.5 -132t-213 -48t-211 51t-138.5 146t-48.5 229zM140 -25.5q-3 15.5 10 31.5l745 1024q12 16 26.5 17.5t27 -7t15.5 -24t-10 -31.5 l-745 -1024q-12 -16 -26.5 -17t-27 7t-15.5 23.5zM193 406q0 -168 83 -255.5t230 -87.5q131 0 221 72t136 190.5t46 260.5q0 170 -83 256t-230 86q-131 0 -221 -72t-136 -189.5t-46 -260.5z" />
<glyph unicode="&#xf9;" horiz-adv-x="1116" d="M154 387l90 574q4 23 16 33t33 10q20 0 30.5 -13.5t6.5 -38.5l-90 -567q-27 -162 27.5 -242t183.5 -80q170 0 270 106.5t127 281.5l80 510q4 23 16 33t33 10q20 0 30.5 -11.5t6.5 -34.5l-148 -927q-6 -43 -47 -43q-20 0 -29.5 13t-5.5 38l33 207h23 q-47 -123 -149.5 -192.5t-241.5 -69.5q-106 0 -180 44t-105 133t-10 226zM345.5 1517.5q0.5 14.5 11 23.5t25 12t29.5 -4t25 -23l220 -357q10 -16 7 -29.5t-13.5 -19.5t-24 -2.5t-23.5 17.5l-245 352q-12 16 -11.5 30.5z" />
<glyph unicode="&#xfa;" horiz-adv-x="1116" d="M154 387l90 574q4 23 16 33t33 10q20 0 30.5 -13.5t6.5 -38.5l-90 -567q-27 -162 27.5 -242t183.5 -80q170 0 270 106.5t127 281.5l80 510q4 23 16 33t33 10q20 0 30.5 -11.5t6.5 -34.5l-148 -927q-6 -43 -47 -43q-20 0 -29.5 13t-5.5 38l33 207h23 q-47 -123 -149.5 -192.5t-241.5 -69.5q-106 0 -180 44t-105 133t-10 226zM632 1138.5q-3 12.5 7 26.5l242 359q14 20 29.5 26t29 3t22.5 -14t9 -26.5t-12 -31.5l-269 -349q-10 -14 -23 -16t-22.5 4t-12.5 18.5z" />
<glyph unicode="&#xfb;" horiz-adv-x="1116" d="M154 387l90 574q4 23 16 33t33 10q20 0 30.5 -13.5t6.5 -38.5l-90 -567q-27 -162 27.5 -242t183.5 -80q170 0 270 106.5t127 281.5l80 510q4 23 16 33t33 10q20 0 30.5 -11.5t6.5 -34.5l-148 -927q-6 -43 -47 -43q-20 0 -29.5 13t-5.5 38l33 207h23 q-47 -123 -149.5 -192.5t-241.5 -69.5q-106 0 -180 44t-105 133t-10 226zM392.5 1134.5q-3.5 12.5 7.5 28.5l231 355q16 23 31.5 29.5t34.5 6.5q18 0 31.5 -8t21.5 -28l155 -359q6 -16 1 -26.5t-17 -14.5t-24.5 0t-18.5 17l-158 321l-235 -324q-10 -12 -23.5 -16t-23.5 1 t-13.5 17.5z" />
<glyph unicode="&#xfc;" horiz-adv-x="1116" d="M154 387l90 574q4 23 16 33t33 10q20 0 30.5 -13.5t6.5 -38.5l-90 -567q-27 -162 27.5 -242t183.5 -80q170 0 270 106.5t127 281.5l80 510q4 23 16 33t33 10q20 0 30.5 -11.5t6.5 -34.5l-148 -927q-6 -43 -47 -43q-20 0 -29.5 13t-5.5 38l33 207h23 q-47 -123 -149.5 -192.5t-241.5 -69.5q-106 0 -180 44t-105 133t-10 226zM449 1321q0 41 20.5 60.5t57.5 19.5q29 0 44 -14.5t15 -41.5q0 -39 -20.5 -59t-57.5 -20q-29 0 -44 14t-15 41zM779 1321q0 41 20 60.5t57 19.5q29 0 44.5 -14.5t15.5 -41.5q0 -39 -20.5 -59 t-57.5 -20q-29 0 -44 14t-15 41z" />
<glyph unicode="&#xfd;" horiz-adv-x="1032" d="M135 972.5q2 14.5 13.5 23t29.5 8.5q20 0 28.5 -9.5t14.5 -31.5l238 -934h-51l544 942q10 16 20.5 24.5t26.5 8.5q18 0 29.5 -10.5t13.5 -26t-10 -35.5l-749 -1278q-8 -16 -19.5 -25.5t-27.5 -9.5q-18 0 -27.5 10.5t-8.5 26.5t11 35l188 323l-6 -41l-256 965 q-4 20 -2 34.5zM576 1136.5q-3 12.5 7 26.5l242 359q14 20 29.5 26t29 3t22.5 -14t9 -26.5t-12 -31.5l-269 -349q-10 -14 -23 -16t-22.5 4t-12.5 18.5z" />
<glyph unicode="&#xfe;" horiz-adv-x="1163" d="M43 -330l276 1743q4 23 16.5 33t33.5 10q20 0 29.5 -13t4.5 -38l-102 -645h-22q53 115 153 181.5t238 66.5q117 0 205 -51.5t136 -145.5t48 -225q0 -160 -56.5 -297t-167 -221t-272.5 -84q-125 0 -223 64.5t-133 201.5h14l-94 -588q-2 -20 -14 -31.5t-35 -11.5 q-20 0 -29.5 13.5t-5.5 37.5zM254 406q0 -168 83 -255.5t230 -87.5q131 0 221.5 72t136.5 190.5t46 260.5q0 170 -83 256t-231 86q-131 0 -221 -72t-136 -189.5t-46 -260.5z" />
<glyph unicode="&#xff;" horiz-adv-x="1032" d="M135 972.5q2 14.5 13.5 23t29.5 8.5q20 0 28.5 -9.5t14.5 -31.5l238 -934h-51l544 942q10 16 20.5 24.5t26.5 8.5q18 0 29.5 -10.5t13.5 -26t-10 -35.5l-749 -1278q-8 -16 -19.5 -25.5t-27.5 -9.5q-18 0 -27.5 10.5t-8.5 26.5t11 35l188 323l-6 -41l-256 965 q-4 20 -2 34.5zM393 1319q0 41 20.5 60.5t57.5 19.5q29 0 44 -14.5t15 -41.5q0 -39 -20.5 -59t-57.5 -20q-29 0 -44 14t-15 41zM723 1319q0 41 20 60.5t57 19.5q29 0 44.5 -14.5t15.5 -41.5q0 -39 -20.5 -59t-57.5 -20q-29 0 -44 14t-15 41z" />
<glyph unicode="&#x152;" horiz-adv-x="2125" d="M166 592q0 174 46 327.5t144.5 271.5t251 185.5t367.5 67.5h1161q20 0 31.5 -7t11.5 -24q0 -27 -14.5 -38t-32.5 -11h-750l-94 -592h705q20 0 31.5 -7t11.5 -24q0 -27 -14.5 -38t-32.5 -11h-715l-96 -612h745q20 0 31.5 -7t11.5 -24q0 -27 -14.5 -38t-32.5 -11h-1100 q-313 0 -483 154.5t-170 437.5zM258 592q0 -248 141 -380t422 -132h271l204 1284h-325q-197 0 -333 -61.5t-220 -170t-122 -248t-38 -292.5z" />
<glyph unicode="&#x153;" horiz-adv-x="1855" d="M104 410q0 119 32 226t95.5 191t155.5 132.5t213 48.5q164 0 265.5 -92.5t121.5 -256.5h-45q53 152 171 250.5t292 98.5q145 0 230 -69t117 -178.5t11 -230.5q-4 -29 -14 -40t-37 -11h-751l12 76h749l-39 -25q16 111 -6 201t-88.5 144.5t-185.5 54.5q-127 0 -211 -58.5 t-129 -147.5t-62 -183l-6 -37q-33 -197 54.5 -319t269.5 -122q84 0 154.5 20.5t140.5 74.5q18 14 32.5 15t24.5 -6t13.5 -19.5t-3 -28t-22.5 -27.5q-68 -51 -158 -79.5t-178 -28.5q-174 0 -282.5 89t-133.5 249h43q-51 -145 -163.5 -241.5t-284.5 -96.5q-121 0 -211 51 t-138.5 146t-48.5 229zM193 406q0 -168 83 -255.5t230 -87.5q131 0 221 72t136 190.5t46 260.5q0 170 -83 256t-230 86q-131 0 -221 -72t-136 -189.5t-46 -260.5z" />
<glyph unicode="&#x178;" horiz-adv-x="1181" d="M170 1423.5q0 14.5 10 23.5t27 9q18 0 27.5 -8t17.5 -25l387 -669h-33l611 678q10 12 21 18t26 6q14 0 24 -9t11 -24.5t-15 -33.5l-647 -717l35 80l-115 -723q-6 -41 -47 -41q-20 0 -29.5 13t-7.5 36l113 715l8 -80l-414 717q-10 20 -10 34.5zM543 1729q0 41 20.5 60 t56.5 19q29 0 44.5 -14t15.5 -41q0 -39 -20.5 -59.5t-57.5 -20.5q-29 0 -44 14.5t-15 41.5zM872 1729q0 41 20.5 60t57.5 19q29 0 44.5 -14t15.5 -41q0 -39 -20.5 -59.5t-57.5 -20.5q-29 0 -44.5 14.5t-15.5 41.5z" />
<glyph unicode="&#x2c6;" horiz-adv-x="927" d="M308.5 1132.5q-3.5 12.5 7.5 28.5l231 355q16 23 31.5 29.5t34.5 6.5q18 0 31.5 -8t21.5 -28l155 -359q6 -16 1 -26.5t-17 -14.5t-24.5 0t-18.5 17l-158 321l-235 -324q-10 -12 -23.5 -16t-23.5 1t-13.5 17.5z" />
<glyph unicode="&#x2dc;" horiz-adv-x="1064" d="M326 1253q12 53 31.5 93t46 68t59.5 42t70 14q49 0 83.5 -26.5t63.5 -60t58.5 -60.5t66.5 -27q49 0 84 40t55 112q4 16 15.5 24.5t25.5 6.5q16 -2 22.5 -12.5t2.5 -26.5q-16 -70 -46 -118t-70 -73.5t-89 -25.5t-85 26.5t-64.5 60t-58 60.5t-66.5 27q-49 0 -84 -40 t-56 -112q-4 -16 -14.5 -24.5t-26.5 -6.5q-14 2 -21 12.5t-3 26.5z" />
<glyph unicode="&#x2000;" horiz-adv-x="1003" />
<glyph unicode="&#x2001;" horiz-adv-x="2007" />
<glyph unicode="&#x2002;" horiz-adv-x="1003" />
<glyph unicode="&#x2003;" horiz-adv-x="2007" />
<glyph unicode="&#x2004;" horiz-adv-x="669" />
<glyph unicode="&#x2005;" horiz-adv-x="501" />
<glyph unicode="&#x2006;" horiz-adv-x="334" />
<glyph unicode="&#x2007;" horiz-adv-x="334" />
<glyph unicode="&#x2008;" horiz-adv-x="250" />
<glyph unicode="&#x2009;" horiz-adv-x="401" />
<glyph unicode="&#x200a;" horiz-adv-x="111" />
<glyph unicode="&#x2010;" horiz-adv-x="851" d="M150 532q0 18 12 34t37 16h483q20 0 28.5 -8.5t8.5 -20.5q0 -18 -12.5 -33.5t-36.5 -15.5h-484q-20 0 -28 8t-8 20z" />
<glyph unicode="&#x2011;" horiz-adv-x="851" d="M150 532q0 18 12 34t37 16h483q20 0 28.5 -8.5t8.5 -20.5q0 -18 -12.5 -33.5t-36.5 -15.5h-484q-20 0 -28 8t-8 20z" />
<glyph unicode="&#x2012;" horiz-adv-x="851" d="M150 532q0 18 12 34t37 16h483q20 0 28.5 -8.5t8.5 -20.5q0 -18 -12.5 -33.5t-36.5 -15.5h-484q-20 0 -28 8t-8 20z" />
<glyph unicode="&#x2013;" horiz-adv-x="1024" d="M-16 543q0 14 12 24.5t31 10.5h987q23 0 33 -8.5t10 -22.5q0 -18 -13.5 -27.5t-29.5 -9.5h-989q-20 0 -30.5 9t-10.5 24z" />
<glyph unicode="&#x2014;" horiz-adv-x="2048" d="M-4 543q0 14 12 24.5t31 10.5h1986q23 0 33 -8.5t10 -22.5q0 -18 -13 -27.5t-30 -9.5h-1988q-20 0 -30.5 9t-10.5 24z" />
<glyph unicode="&#x2018;" horiz-adv-x="432" d="M254 1200q0 43 12.5 86t34.5 81t51 67q16 16 31.5 16t25 -9t9.5 -25.5t-17 -33.5q-33 -35 -49 -65.5t-22 -71.5l-11 19q37 0 59.5 -21.5t22.5 -56.5q0 -33 -20.5 -55.5t-52.5 -22.5q-35 0 -54.5 23.5t-19.5 68.5z" />
<glyph unicode="&#x2019;" horiz-adv-x="432" d="M263 1142.5q1 16.5 16 33.5q33 35 49 66.5t22 70.5l10 -19q-37 0 -59 22.5t-22 55.5q0 35 20 56.5t53 21.5q35 0 54.5 -23.5t19.5 -68.5q0 -43 -12.5 -86t-34.5 -81t-51 -67q-16 -16 -31.5 -16t-25 9t-8.5 25.5z" />
<glyph unicode="&#x201a;" horiz-adv-x="432" d="M58 -157.5q1 16.5 16 32.5q33 35 49 66.5t22 70.5l11 -18q-37 0 -59.5 22.5t-22.5 55.5q0 35 20.5 56.5t52.5 21.5q35 0 54.5 -24t19.5 -69q0 -43 -12 -86t-34.5 -80.5t-51.5 -66.5q-16 -16 -31.5 -16.5t-25 9t-8.5 26z" />
<glyph unicode="&#x201c;" horiz-adv-x="718" d="M254 1200q0 43 12.5 86t34.5 81t51 67q16 16 31.5 16t25 -9t9.5 -25.5t-17 -33.5q-33 -35 -49 -65.5t-22 -71.5l-11 19q37 0 59.5 -21.5t22.5 -56.5q0 -33 -20.5 -55.5t-52.5 -22.5q-35 0 -54.5 23.5t-19.5 68.5zM541 1200q0 43 12.5 86t34.5 81t51 67q16 16 31.5 16 t25 -9t9.5 -25.5t-17 -33.5q-33 -35 -49 -65.5t-22 -71.5l-11 19q37 0 59.5 -21.5t22.5 -56.5q0 -33 -20.5 -55.5t-52.5 -22.5q-35 0 -54.5 23.5t-19.5 68.5z" />
<glyph unicode="&#x201d;" horiz-adv-x="718" d="M263 1142.5q1 16.5 16 33.5q33 35 49 66.5t22 70.5l10 -19q-37 0 -59 22.5t-22 55.5q0 35 20 56.5t53 21.5q35 0 54.5 -23.5t19.5 -68.5q0 -43 -12.5 -86t-34.5 -81t-51 -67q-16 -16 -31.5 -16t-25 9t-8.5 25.5zM550 1142.5q1 16.5 16 33.5q33 35 49 66.5t22 70.5l10 -19 q-37 0 -59 22.5t-22 55.5q0 35 20 56.5t53 21.5q35 0 54.5 -23.5t19.5 -68.5q0 -43 -12.5 -86t-34.5 -81t-51 -67q-16 -16 -31.5 -16t-25 9t-8.5 25.5z" />
<glyph unicode="&#x201e;" horiz-adv-x="718" d="M58 -157.5q1 16.5 16 32.5q33 35 49 66.5t22 70.5l11 -18q-37 0 -59.5 22.5t-22.5 55.5q0 35 20.5 56.5t52.5 21.5q35 0 54.5 -24t19.5 -69q0 -43 -12 -86t-34.5 -80.5t-51.5 -66.5q-16 -16 -31.5 -16.5t-25 9t-8.5 26zM345 -157.5q1 16.5 16 32.5q33 35 49 66.5t22 70.5 l11 -18q-37 0 -59.5 22.5t-22.5 55.5q0 35 20.5 56.5t52.5 21.5q35 0 54.5 -24t19.5 -69q0 -43 -12 -86t-34.5 -80.5t-51.5 -66.5q-16 -16 -31.5 -16.5t-25 9t-8.5 26z" />
<glyph unicode="&#x2022;" horiz-adv-x="1073" d="M172 543q0 94 48 177t132 135t191 52q98 0 183 -47t136 -130t51 -187q0 -100 -50 -182t-134 -131.5t-186 -49.5q-100 0 -184.5 48t-135.5 130t-51 185z" />
<glyph unicode="&#x2026;" horiz-adv-x="1298" d="M74 72q0 35 22.5 56.5t55.5 21.5q35 0 55 -22t20 -56q0 -33 -20 -55.5t-55 -22.5q-33 0 -55.5 22.5t-22.5 55.5zM508 72q0 35 22.5 56.5t55.5 21.5q35 0 55 -22t20 -56q0 -33 -20 -55.5t-55 -22.5q-33 0 -55.5 22.5t-22.5 55.5zM940 72q0 35 22.5 56.5t55.5 21.5 q35 0 55 -22t20 -56q0 -33 -20 -55.5t-55 -22.5q-33 0 -55.5 22.5t-22.5 55.5z" />
<glyph unicode="&#x202f;" horiz-adv-x="401" />
<glyph unicode="&#x2039;" horiz-adv-x="483" d="M127 539.5q0 17.5 12 33.5l223 304q10 12 23.5 16t28.5 -2q16 -8 18 -27.5t-12 -40.5l-201 -284l105 -287q8 -20 1.5 -36.5t-22.5 -20.5q-14 -4 -30.5 2t-22.5 22l-119 293q-4 10 -4 27.5z" />
<glyph unicode="&#x203a;" horiz-adv-x="483" d="M64.5 222.5q-1.5 19.5 13.5 39.5l198 285l-102 287q-8 23 -2 38t21 19q16 4 31.5 -2t21.5 -23l119 -293q4 -10 4 -27.5t-13 -33.5l-223 -303q-8 -12 -22.5 -16t-28.5 2q-16 8 -17.5 27.5z" />
<glyph unicode="&#x205f;" horiz-adv-x="501" />
<glyph unicode="&#x20ac;" d="M27 563q0 16 11 29.5t32 13.5h221l-25 -24q-2 72 4 139t21 133l10 -14h-190q-20 0 -28.5 9t-8.5 21q0 16 11 29.5t32 13.5h205l-23 -18q35 162 108.5 290t187.5 201.5t267 73.5q109 0 218.5 -49t172.5 -133q12 -16 13.5 -31.5t-5 -26t-18.5 -14.5t-25.5 0t-27.5 19 q-76 84 -160 117.5t-174 33.5q-129 0 -222 -64.5t-153.5 -174t-91.5 -248.5l-18 24h403q20 0 28.5 -10t8.5 -22q0 -14 -11.5 -27.5t-33.5 -13.5h-408l23 14q-12 -63 -18.5 -132t-4.5 -136l-18 20h387q20 0 28.5 -10t8.5 -23q0 -14 -10.5 -27.5t-32.5 -13.5h-381l18 15 q8 -162 63.5 -268.5t140.5 -158.5t183 -52q86 0 170 28.5t154 106.5q16 18 31.5 23t27 0t17.5 -15t3 -25.5t-15 -31.5q-74 -90 -176.5 -130t-217.5 -40q-121 0 -226 65.5t-172 192.5t-75 313l21 -23h-224q-20 0 -28 9.5t-8 21.5z" />
<glyph unicode="&#x2122;" horiz-adv-x="1841" d="M143 1401q0 23 12.5 33t32.5 10h631q20 0 30.5 -7t10.5 -24q0 -20 -11 -31.5t-34 -11.5h-278l-121 -760q-2 -18 -14.5 -27.5t-32.5 -9.5q-18 0 -26.5 12.5t-6.5 35.5l119 749h-271q-20 0 -30.5 8t-10.5 23zM866 621l127 796q2 12 7.5 19.5t13.5 11.5t16 4q14 0 22.5 -6 t16.5 -25l242 -649h-39l448 651q12 16 23.5 22.5t28.5 6.5q16 0 26 -11t6 -34l-127 -795q-6 -39 -45 -39q-18 0 -26.5 12.5t-6.5 35.5l113 706h33l-416 -602q-8 -12 -17 -17.5t-24 -5.5q-12 0 -22.5 7.5t-16.5 23.5l-227 594h37l-115 -715q-6 -39 -45 -39q-18 0 -26.5 12.5 t-6.5 35.5z" />
<glyph unicode="&#x25fc;" horiz-adv-x="1003" d="M0 0v1004h1004v-1004h-1004z" />
</font>
</defs>
</svg>
