<svg width="372" height="76" viewBox="0 0 372 76" fill="none" xmlns="http://www.w3.org/2000/svg">
<path d="M33.753 2.672C37.433 2.672 40.361 3.424 42.537 4.928C44.713 6.4 45.801 8.608 45.801 11.552C45.801 13.728 45.257 15.552 44.169 17.024C43.113 18.464 41.657 19.552 39.801 20.288C37.977 20.992 35.881 21.344 33.513 21.344L32.409 17.6C35.321 17.6 37.897 18 40.137 18.8C42.409 19.6 44.201 20.752 45.513 22.256C46.825 23.728 47.481 25.504 47.481 27.584C47.481 29.504 47.129 31.136 46.425 32.48C45.753 33.792 44.825 34.864 43.641 35.696C42.489 36.496 41.177 37.088 39.705 37.472C38.233 37.824 36.713 38 35.145 38H23.385V2.672H33.753ZM34.569 17.12C35.945 17.12 36.953 16.704 37.593 15.872C38.265 15.04 38.601 14.096 38.601 13.04C38.601 11.824 38.185 10.912 37.353 10.304C36.553 9.696 35.465 9.392 34.089 9.392H30.345V17.12H34.569ZM34.809 31.52C35.833 31.52 36.761 31.392 37.593 31.136C38.425 30.848 39.081 30.416 39.561 29.84C40.041 29.232 40.281 28.48 40.281 27.584C40.281 26.56 39.993 25.792 39.417 25.28C38.841 24.736 38.089 24.368 37.161 24.176C36.265 23.952 35.321 23.84 34.329 23.84H30.345V31.52H34.809ZM88.9751 2.672V38H82.0151V23.648H66.2231V38H59.2631V2.672H66.2231V16.928H82.0151V2.672H88.9751ZM113.58 2.672C115.788 2.672 117.756 2.96 119.484 3.536C121.212 4.08 122.652 4.88 123.804 5.936C124.988 6.96 125.884 8.208 126.492 9.68C127.1 11.12 127.404 12.752 127.404 14.576C127.404 16.016 127.18 17.456 126.732 18.896C126.316 20.336 125.612 21.648 124.62 22.832C123.66 24.016 122.38 24.976 120.78 25.712C119.18 26.416 117.196 26.768 114.828 26.768H109.836V38H102.876V2.672H113.58ZM114.78 20.048C115.836 20.048 116.716 19.872 117.42 19.52C118.124 19.168 118.668 18.72 119.052 18.176C119.468 17.632 119.756 17.072 119.916 16.496C120.108 15.888 120.204 15.328 120.204 14.816C120.204 14.432 120.14 13.952 120.012 13.376C119.916 12.768 119.692 12.16 119.34 11.552C118.988 10.944 118.444 10.432 117.708 10.016C117.004 9.6 116.044 9.392 114.828 9.392H109.836V20.048H114.78ZM121.308 24.368L130.044 38H121.932L113.004 24.56L121.308 24.368ZM137.203 20.384C137.203 17.952 137.667 15.648 138.595 13.472C139.523 11.296 140.803 9.376 142.435 7.712C144.099 6.016 146.019 4.688 148.195 3.728C150.371 2.768 152.707 2.288 155.203 2.288C157.667 2.288 159.987 2.768 162.163 3.728C164.339 4.688 166.259 6.016 167.923 7.712C169.619 9.376 170.931 11.296 171.859 13.472C172.819 15.648 173.299 17.952 173.299 20.384C173.299 22.88 172.819 25.216 171.859 27.392C170.931 29.568 169.619 31.488 167.923 33.152C166.259 34.784 164.339 36.064 162.163 36.992C159.987 37.92 157.667 38.384 155.203 38.384C152.707 38.384 150.371 37.92 148.195 36.992C146.019 36.064 144.099 34.784 142.435 33.152C140.803 31.488 139.523 29.568 138.595 27.392C137.667 25.216 137.203 22.88 137.203 20.384ZM144.403 20.384C144.403 21.952 144.675 23.424 145.219 24.8C145.795 26.144 146.579 27.344 147.571 28.4C148.595 29.424 149.763 30.224 151.075 30.8C152.419 31.376 153.875 31.664 155.443 31.664C156.947 31.664 158.339 31.376 159.619 30.8C160.931 30.224 162.067 29.424 163.027 28.4C163.987 27.344 164.739 26.144 165.283 24.8C165.827 23.424 166.099 21.952 166.099 20.384C166.099 18.784 165.811 17.296 165.235 15.92C164.691 14.544 163.923 13.344 162.931 12.32C161.971 11.264 160.835 10.448 159.523 9.872C158.211 9.296 156.787 9.008 155.251 9.008C153.715 9.008 152.291 9.296 150.979 9.872C149.667 10.448 148.515 11.264 147.523 12.32C146.531 13.344 145.763 14.544 145.219 15.92C144.675 17.296 144.403 18.784 144.403 20.384ZM185.038 38V1.232H185.086L204.718 29.072L201.742 28.4L221.326 1.232H221.422V38H214.462V16.928L214.894 20.528L202.942 37.52H202.846L190.558 20.528L191.758 17.216V38H185.038ZM231.37 38L247.306 1.28H247.69L263.626 38H255.562L245.386 12.176L250.426 8.72L238.234 38H231.37ZM242.266 25.232H252.874L255.322 31.088H240.106L242.266 25.232ZM268.978 20.384C268.978 17.952 269.442 15.648 270.37 13.472C271.298 11.296 272.578 9.376 274.21 7.712C275.874 6.016 277.794 4.688 279.97 3.728C282.146 2.768 284.482 2.288 286.978 2.288C289.442 2.288 291.762 2.768 293.938 3.728C296.114 4.688 298.034 6.016 299.698 7.712C301.394 9.376 302.706 11.296 303.634 13.472C304.594 15.648 305.074 17.952 305.074 20.384C305.074 22.88 304.594 25.216 303.634 27.392C302.706 29.568 301.394 31.488 299.698 33.152C298.034 34.784 296.114 36.064 293.938 36.992C291.762 37.92 289.442 38.384 286.978 38.384C284.482 38.384 282.146 37.92 279.97 36.992C277.794 36.064 275.874 34.784 274.21 33.152C272.578 31.488 271.298 29.568 270.37 27.392C269.442 25.216 268.978 22.88 268.978 20.384ZM276.178 20.384C276.178 21.952 276.45 23.424 276.994 24.8C277.57 26.144 278.354 27.344 279.346 28.4C280.37 29.424 281.538 30.224 282.85 30.8C284.194 31.376 285.65 31.664 287.218 31.664C288.722 31.664 290.114 31.376 291.394 30.8C292.706 30.224 293.842 29.424 294.802 28.4C295.762 27.344 296.514 26.144 297.058 24.8C297.602 23.424 297.874 21.952 297.874 20.384C297.874 18.784 297.586 17.296 297.01 15.92C296.466 14.544 295.698 13.344 294.706 12.32C293.746 11.264 292.61 10.448 291.298 9.872C289.986 9.296 288.562 9.008 287.026 9.008C285.49 9.008 284.066 9.296 282.754 9.872C281.442 10.448 280.29 11.264 279.298 12.32C278.306 13.344 277.538 14.544 276.994 15.92C276.45 17.296 276.178 18.784 276.178 20.384ZM348.445 39.44L321.661 15.248L323.725 16.4L323.869 38H316.813V1.28H317.101L343.309 25.376L341.773 24.704L341.629 2.672H348.637V39.44H348.445Z" fill="white"/>
<path d="M23.8041 55.932C23.2615 55.6533 22.6675 55.4113 22.0221 55.206C21.3768 55.0007 20.7461 54.898 20.1301 54.898C19.2795 54.898 18.5975 55.096 18.0841 55.492C17.5855 55.888 17.3361 56.416 17.3361 57.076C17.3361 57.5747 17.4975 58 17.8201 58.352C18.1428 58.6893 18.5681 58.9827 19.0961 59.232C19.6241 59.4813 20.1741 59.716 20.7461 59.936C21.2448 60.1267 21.7361 60.3393 22.2201 60.574C22.7041 60.8087 23.1368 61.102 23.5181 61.454C23.9141 61.806 24.2221 62.2387 24.4421 62.752C24.6768 63.2653 24.7941 63.9033 24.7941 64.666C24.7941 65.502 24.5814 66.2647 24.1561 66.954C23.7455 67.6433 23.1515 68.186 22.3741 68.582C21.5968 68.978 20.6728 69.176 19.6021 69.176C18.8981 69.176 18.2234 69.0953 17.5781 68.934C16.9474 68.7727 16.3608 68.5673 15.8181 68.318C15.2754 68.054 14.7914 67.7827 14.3661 67.504L15.3121 65.832C15.6641 66.0813 16.0674 66.3233 16.5221 66.558C16.9768 66.778 17.4534 66.9613 17.9521 67.108C18.4508 67.24 18.9348 67.306 19.4041 67.306C19.9028 67.306 20.3941 67.218 20.8781 67.042C21.3768 66.8513 21.7875 66.5653 22.1101 66.184C22.4328 65.8027 22.5941 65.2967 22.5941 64.666C22.5941 64.1233 22.4475 63.676 22.1541 63.324C21.8755 62.9573 21.5015 62.6493 21.0321 62.4C20.5628 62.136 20.0641 61.9013 19.5361 61.696C19.0374 61.5053 18.5314 61.3 18.0181 61.08C17.5048 60.8453 17.0281 60.5667 16.5881 60.244C16.1481 59.9067 15.7961 59.496 15.5321 59.012C15.2681 58.528 15.1361 57.9413 15.1361 57.252C15.1361 56.416 15.3341 55.69 15.7301 55.074C16.1408 54.4433 16.6981 53.952 17.4021 53.6C18.1061 53.2333 18.9128 53.0353 19.8221 53.006C20.8488 53.006 21.7508 53.1307 22.5281 53.38C23.3201 53.6293 24.0168 53.9373 24.6181 54.304L23.8041 55.932ZM38.4788 69.22C37.6281 69.22 36.8508 69.0367 36.1468 68.67C35.4575 68.3033 34.9075 67.768 34.4968 67.064C34.1008 66.3453 33.9028 65.4727 33.9028 64.446C33.9028 63.434 34.1155 62.5613 34.5408 61.828C34.9661 61.08 35.5308 60.508 36.2348 60.112C36.9535 59.716 37.7381 59.518 38.5888 59.518C39.4395 59.518 40.1581 59.716 40.7448 60.112C41.3315 60.4933 41.7788 60.948 42.0868 61.476L41.9548 61.828L42.1528 59.892H44.0448V69H41.9988V66.624L42.2188 67.152C42.1601 67.2987 42.0281 67.4893 41.8228 67.724C41.6321 67.944 41.3681 68.1713 41.0308 68.406C40.7081 68.6407 40.3341 68.8387 39.9088 69C39.4835 69.1467 39.0068 69.22 38.4788 69.22ZM39.0288 67.526C39.5421 67.526 40.0041 67.4307 40.4148 67.24C40.8255 67.0493 41.1628 66.7853 41.4268 66.448C41.7055 66.096 41.8961 65.678 41.9988 65.194V63.412C41.8815 62.972 41.6761 62.5907 41.3828 62.268C41.0895 61.9307 40.7375 61.674 40.3268 61.498C39.9161 61.3073 39.4615 61.212 38.9628 61.212C38.4201 61.212 37.9215 61.344 37.4668 61.608C37.0121 61.872 36.6455 62.2387 36.3668 62.708C36.1028 63.1773 35.9708 63.7273 35.9708 64.358C35.9708 64.9447 36.1101 65.48 36.3888 65.964C36.6675 66.448 37.0415 66.8293 37.5108 67.108C37.9801 67.3867 38.4861 67.526 39.0288 67.526ZM55.1534 69V61.718H53.5914V59.892H55.1534V56.042C55.1534 54.722 55.4468 53.71 56.0334 53.006C56.6348 52.302 57.5148 51.95 58.6734 51.95C58.9814 51.95 59.3188 51.994 59.6854 52.082C60.0668 52.17 60.3968 52.3167 60.6754 52.522L59.8174 53.996C59.6854 53.864 59.5388 53.776 59.3774 53.732C59.2161 53.6733 59.0548 53.644 58.8934 53.644C58.3508 53.644 57.9328 53.8273 57.6394 54.194C57.3461 54.5607 57.1994 55.184 57.1994 56.064V59.892H60.0814V61.718H57.1994V69H55.1534ZM73.2912 69.22C72.2499 69.22 71.3552 69.0147 70.6072 68.604C69.8592 68.1787 69.2799 67.6067 68.8692 66.888C68.4732 66.1547 68.2752 65.3187 68.2752 64.38C68.2752 63.4853 68.5026 62.6713 68.9572 61.938C69.4119 61.2047 70.0206 60.618 70.7832 60.178C71.5459 59.738 72.3966 59.518 73.3352 59.518C74.5379 59.518 75.5352 59.87 76.3272 60.574C77.1192 61.278 77.6546 62.246 77.9332 63.478L70.4312 66.118L69.9472 64.908L76.1072 62.664L75.6672 62.95C75.4912 62.466 75.1979 62.048 74.7872 61.696C74.3766 61.3293 73.8412 61.146 73.1812 61.146C72.6239 61.146 72.1252 61.2853 71.6852 61.564C71.2452 61.828 70.9006 62.1947 70.6512 62.664C70.4019 63.1333 70.2772 63.6687 70.2772 64.27C70.2772 64.9007 70.4092 65.458 70.6732 65.942C70.9372 66.4113 71.2966 66.7853 71.7512 67.064C72.2206 67.328 72.7486 67.46 73.3352 67.46C73.7312 67.46 74.1126 67.3867 74.4792 67.24C74.8606 67.0933 75.2126 66.9027 75.5352 66.668L76.4812 68.186C76.0266 68.494 75.5132 68.7433 74.9412 68.934C74.3839 69.1247 73.8339 69.22 73.2912 69.22ZM100.438 53.094H110.998V55.14H106.73V69H104.596V55.14H100.438V53.094ZM121.217 59.892L121.415 62.532L121.305 62.18C121.539 61.6227 121.877 61.1533 122.317 60.772C122.771 60.376 123.241 60.0753 123.725 59.87C124.223 59.65 124.656 59.54 125.023 59.54L124.913 61.564C124.223 61.52 123.615 61.652 123.087 61.96C122.573 62.268 122.163 62.6787 121.855 63.192C121.561 63.7053 121.415 64.2553 121.415 64.842V69H119.391V59.892H121.217ZM138.051 69.22C137.2 69.22 136.423 69.0367 135.719 68.67C135.03 68.3033 134.48 67.768 134.069 67.064C133.673 66.3453 133.475 65.4727 133.475 64.446C133.475 63.434 133.688 62.5613 134.113 61.828C134.538 61.08 135.103 60.508 135.807 60.112C136.526 59.716 137.31 59.518 138.161 59.518C139.012 59.518 139.73 59.716 140.317 60.112C140.904 60.4933 141.351 60.948 141.659 61.476L141.527 61.828L141.725 59.892H143.617V69H141.571V66.624L141.791 67.152C141.732 67.2987 141.6 67.4893 141.395 67.724C141.204 67.944 140.94 68.1713 140.603 68.406C140.28 68.6407 139.906 68.8387 139.481 69C139.056 69.1467 138.579 69.22 138.051 69.22ZM138.601 67.526C139.114 67.526 139.576 67.4307 139.987 67.24C140.398 67.0493 140.735 66.7853 140.999 66.448C141.278 66.096 141.468 65.678 141.571 65.194V63.412C141.454 62.972 141.248 62.5907 140.955 62.268C140.662 61.9307 140.31 61.674 139.899 61.498C139.488 61.3073 139.034 61.212 138.535 61.212C137.992 61.212 137.494 61.344 137.039 61.608C136.584 61.872 136.218 62.2387 135.939 62.708C135.675 63.1773 135.543 63.7273 135.543 64.358C135.543 64.9447 135.682 65.48 135.961 65.964C136.24 66.448 136.614 66.8293 137.083 67.108C137.552 67.3867 138.058 67.526 138.601 67.526ZM157.674 69.264L152.614 59.892H155.034L158.466 67.13L157.212 67.086L160.358 59.892H162.646L157.784 69.264H157.674ZM175.678 69.22C174.637 69.22 173.742 69.0147 172.994 68.604C172.246 68.1787 171.667 67.6067 171.256 66.888C170.86 66.1547 170.662 65.3187 170.662 64.38C170.662 63.4853 170.889 62.6713 171.344 61.938C171.799 61.2047 172.407 60.618 173.17 60.178C173.933 59.738 174.783 59.518 175.722 59.518C176.925 59.518 177.922 59.87 178.714 60.574C179.506 61.278 180.041 62.246 180.32 63.478L172.818 66.118L172.334 64.908L178.494 62.664L178.054 62.95C177.878 62.466 177.585 62.048 177.174 61.696C176.763 61.3293 176.228 61.146 175.568 61.146C175.011 61.146 174.512 61.2853 174.072 61.564C173.632 61.828 173.287 62.1947 173.038 62.664C172.789 63.1333 172.664 63.6687 172.664 64.27C172.664 64.9007 172.796 65.458 173.06 65.942C173.324 66.4113 173.683 66.7853 174.138 67.064C174.607 67.328 175.135 67.46 175.722 67.46C176.118 67.46 176.499 67.3867 176.866 67.24C177.247 67.0933 177.599 66.9027 177.922 66.668L178.868 68.186C178.413 68.494 177.9 68.7433 177.328 68.934C176.771 69.1247 176.221 69.22 175.678 69.22ZM189.704 51.972H191.75V69H189.704V51.972ZM214.813 69L221.765 52.434H221.897L228.827 69H226.385L221.193 55.778L222.711 54.788L216.903 69H214.813ZM218.883 62.972H224.801L225.505 64.82H218.267L218.883 62.972ZM239.962 59.892L240.138 62.114L240.05 61.762C240.344 61.0873 240.82 60.552 241.48 60.156C242.14 59.7453 242.903 59.54 243.768 59.54C244.634 59.54 245.338 59.7967 245.88 60.31C246.438 60.8087 246.724 61.4613 246.738 62.268V69H244.67V62.994C244.656 62.4953 244.509 62.092 244.23 61.784C243.966 61.4613 243.548 61.3 242.976 61.3C242.448 61.3 241.972 61.4467 241.546 61.74C241.121 62.0333 240.784 62.4367 240.534 62.95C240.3 63.4633 240.182 64.0573 240.182 64.732V69H238.136V59.892H239.962ZM257.564 73.378L263.57 59.892H265.462L259.588 73.378H257.564ZM259.808 69.066L255.43 59.892H257.74L261.414 68.032L259.808 69.066ZM280.315 59.892L282.999 66.03L282.603 66.074L285.111 59.892H287.113L282.933 69.55L280.007 63.302L277.345 69.55L273.121 59.892H275.123L277.961 66.316L277.257 66.184L279.281 61.476L278.555 59.892H280.315ZM296.13 69V51.972H298.132V62.004L298.088 61.63C298.396 61.0287 298.865 60.53 299.496 60.134C300.141 59.738 300.896 59.54 301.762 59.54C302.627 59.54 303.331 59.7967 303.874 60.31C304.431 60.8087 304.717 61.4613 304.732 62.268V69H302.664V62.994C302.649 62.4953 302.502 62.092 302.224 61.784C301.96 61.4613 301.542 61.3 300.97 61.3C300.442 61.3 299.965 61.454 299.54 61.762C299.114 62.0553 298.777 62.4587 298.528 62.972C298.293 63.4853 298.176 64.072 298.176 64.732V69H296.13ZM319.334 69.22C318.292 69.22 317.398 69.0147 316.65 68.604C315.902 68.1787 315.322 67.6067 314.912 66.888C314.516 66.1547 314.318 65.3187 314.318 64.38C314.318 63.4853 314.545 62.6713 315 61.938C315.454 61.2047 316.063 60.618 316.826 60.178C317.588 59.738 318.439 59.518 319.378 59.518C320.58 59.518 321.578 59.87 322.37 60.574C323.162 61.278 323.697 62.246 323.976 63.478L316.474 66.118L315.99 64.908L322.15 62.664L321.71 62.95C321.534 62.466 321.24 62.048 320.83 61.696C320.419 61.3293 319.884 61.146 319.224 61.146C318.666 61.146 318.168 61.2853 317.728 61.564C317.288 61.828 316.943 62.1947 316.694 62.664C316.444 63.1333 316.32 63.6687 316.32 64.27C316.32 64.9007 316.452 65.458 316.716 65.942C316.98 66.4113 317.339 66.7853 317.794 67.064C318.263 67.328 318.791 67.46 319.378 67.46C319.774 67.46 320.155 67.3867 320.522 67.24C320.903 67.0933 321.255 66.9027 321.578 66.668L322.524 68.186C322.069 68.494 321.556 68.7433 320.984 68.934C320.426 69.1247 319.876 69.22 319.334 69.22ZM335.185 59.892L335.383 62.532L335.273 62.18C335.508 61.6227 335.845 61.1533 336.285 60.772C336.74 60.376 337.209 60.0753 337.693 59.87C338.192 59.65 338.625 59.54 338.991 59.54L338.881 61.564C338.192 61.52 337.583 61.652 337.055 61.96C336.542 62.268 336.131 62.6787 335.823 63.192C335.53 63.7053 335.383 64.2553 335.383 64.842V69H333.359V59.892H335.185ZM352.288 69.22C351.247 69.22 350.352 69.0147 349.604 68.604C348.856 68.1787 348.277 67.6067 347.866 66.888C347.47 66.1547 347.272 65.3187 347.272 64.38C347.272 63.4853 347.5 62.6713 347.954 61.938C348.409 61.2047 349.018 60.618 349.78 60.178C350.543 59.738 351.394 59.518 352.332 59.518C353.535 59.518 354.532 59.87 355.324 60.574C356.116 61.278 356.652 62.246 356.93 63.478L349.428 66.118L348.944 64.908L355.104 62.664L354.664 62.95C354.488 62.466 354.195 62.048 353.784 61.696C353.374 61.3293 352.838 61.146 352.178 61.146C351.621 61.146 351.122 61.2853 350.682 61.564C350.242 61.828 349.898 62.1947 349.648 62.664C349.399 63.1333 349.274 63.6687 349.274 64.27C349.274 64.9007 349.406 65.458 349.67 65.942C349.934 66.4113 350.294 66.7853 350.748 67.064C351.218 67.328 351.746 67.46 352.332 67.46C352.728 67.46 353.11 67.3867 353.476 67.24C353.858 67.0933 354.21 66.9027 354.532 66.668L355.478 68.186C355.024 68.494 354.51 68.7433 353.938 68.934C353.381 69.1247 352.831 69.22 352.288 69.22Z" fill="white"/>
</svg>
